<?xml version="1.0" encoding="UTF-8"?>
<svg version="1.1" xmlns="http://www.w3.org/2000/svg" width="992" height="1056">
<path d="M0 0 C327.36 0 654.72 0 992 0 C992 348.48 992 696.96 992 1056 C664.64 1056 337.28 1056 0 1056 C0 707.52 0 359.04 0 0 Z " fill="#F8F8F8" transform="translate(0,0)"/>
<path d="M0 0 C0.66 0 1.32 0 2 0 C2.24708836 9.7050815 1.80535855 19.12275076 0.78173828 28.77148438 C0.0055376 36.29612931 -0.37224885 43.80446806 -0.57006836 51.36572266 C-0.71081208 55.5848447 -1.04690104 59.53665633 -1.98632812 63.65771484 C-3.07971558 68.96145858 -3.40220563 74.12439806 -3.5625 79.52734375 C-3.59868439 80.50695572 -3.63486877 81.48656769 -3.67214966 82.49586487 C-3.74860184 84.57476189 -3.82170596 86.65378442 -3.8916626 88.73291016 C-4.07354723 94.1130064 -4.28175044 99.49204855 -4.4921875 104.87109375 C-4.53310516 105.92344208 -4.57402283 106.97579041 -4.61618042 108.06002808 C-5.09858762 120.06463166 -5.94141913 132.03224968 -7 144 C-7.61407715 143.84619873 -8.2281543 143.69239746 -8.86083984 143.53393555 C-10.31508513 143.17095513 -11.77037426 142.8121368 -13.2265625 142.45703125 C-19.05657943 140.89033289 -23.72471671 138.61020176 -28.7734375 135.3046875 C-30.89106808 134.06383029 -32.6032885 133.44869941 -35 133 C-35 133.99 -35 134.98 -35 136 C-35.66 136 -36.32 136 -37 136 C-37.20625 136.763125 -37.4125 137.52625 -37.625 138.3125 C-38.81131649 141.49398513 -40.13100633 144.07359585 -41.8125 147 C-45.40873699 153.40607327 -47.70427941 160.04173185 -50 167 C-50.66 167 -51.32 167 -52 167 C-52.12503906 167.72058594 -52.25007812 168.44117188 -52.37890625 169.18359375 C-52.99408166 171.97316275 -53.85608405 174.42221276 -54.9375 177.0625 C-55.27652344 177.89910156 -55.61554687 178.73570312 -55.96484375 179.59765625 C-56.90383963 181.77683537 -57.91384848 183.89101521 -59 186 C-59.66 186 -60.32 186 -61 186 C-61.268125 186.845625 -61.53625 187.69125 -61.8125 188.5625 C-63.0478595 192.13854067 -64.476988 195.53860908 -66 199 C-66.66 199 -67.32 199 -68 199 C-68.10570312 199.72574219 -68.21140625 200.45148438 -68.3203125 201.19921875 C-69.05835377 204.24045778 -70.17648417 206.19712364 -71.875 208.8125 C-74.13795426 212.44824168 -75.78712985 215.82877033 -77.15234375 219.8671875 C-78.2291116 222.57647434 -79.62803375 225.02539584 -81.0625 227.5625 C-82.78968355 230.63824805 -84.30792974 233.45362077 -85.1875 236.875 C-86.02000007 240.07692334 -87.24537749 242.22184769 -89 245 C-89.69822617 246.65369357 -90.37498605 248.31727014 -91 250 C-91.66 250 -92.32 250 -93 250 C-93.13535156 250.56589844 -93.27070312 251.13179687 -93.41015625 251.71484375 C-94.00771866 254.02990342 -94.69532207 256.28982042 -95.4375 258.5625 C-95.68371094 259.32691406 -95.92992187 260.09132813 -96.18359375 260.87890625 C-97 263 -97 263 -99 266 C-99.66 266 -100.32 266 -101 266 C-101.103125 266.639375 -101.20625 267.27875 -101.3125 267.9375 C-102.23903073 272.06477326 -103.61660629 276.00642949 -105 280 C-105.66 280 -106.32 280 -107 280 C-107.33 281.65 -107.66 283.3 -108 285 C-108.66 285 -109.32 285 -110 285 C-110.2475 285.969375 -110.495 286.93875 -110.75 287.9375 C-114.15482955 299.76988636 -114.15482955 299.76988636 -119 303 C-120.12324223 305.27353973 -120.12324223 305.27353973 -121 307.875 C-121.95841642 310.55057916 -122.76022071 312.68903623 -124.5 314.9453125 C-126.36585192 317.50114091 -127.04416264 319.98800088 -128 323 C-129.01011463 325.28504309 -130.05474153 327.55500132 -131.125 329.8125 C-131.42704346 330.45195557 -131.72908691 331.09141113 -132.0402832 331.75024414 C-132.6868849 333.1189257 -133.33478954 334.48699235 -133.98388672 335.85449219 C-135.02794927 338.05901447 -136.06384954 340.26721366 -137.09765625 342.4765625 C-137.79422077 343.96356512 -138.49083426 345.4505448 -139.1875 346.9375 C-139.50799316 347.62239502 -139.82848633 348.30729004 -140.15869141 349.01293945 C-143.51930844 356.16313314 -147.01825064 363.17414395 -151 370 C-151.66 370 -152.32 370 -153 370 C-153.309375 371.258125 -153.61875 372.51625 -153.9375 373.8125 C-154.53978048 376.26177394 -155.20088641 378.60265923 -156 381 C-156.66 381 -157.32 381 -158 381 C-158.268125 381.845625 -158.53625 382.69125 -158.8125 383.5625 C-162.11111111 393.11111111 -162.11111111 393.11111111 -164 395 C-166.05556661 395.09413687 -168.11440181 395.11742998 -170.17211914 395.11352539 C-171.13794167 395.11374443 -171.13794167 395.11374443 -172.12327576 395.1139679 C-174.26060303 395.11326885 -176.39784413 395.10547691 -178.53515625 395.09765625 C-180.01346285 395.09579204 -181.49177007 395.09436815 -182.97007751 395.09336853 C-186.86798802 395.08954359 -190.76586149 395.07971352 -194.66375732 395.06866455 C-198.63846333 395.05844992 -202.61317529 395.0538708 -206.58789062 395.04882812 C-214.391944 395.03809122 -222.19596682 395.02101509 -230 395 C-230.33410889 394.25306885 -230.66821777 393.5061377 -231.01245117 392.73657227 C-231.45564697 391.75229248 -231.89884277 390.7680127 -232.35546875 389.75390625 C-232.79270264 388.7801001 -233.22993652 387.80629395 -233.68041992 386.80297852 C-234.79613618 384.43303618 -235.98117336 382.19017227 -237.3125 379.9375 C-239 377 -239 377 -239 375 C-239.99 374.67 -240.98 374.34 -242 374 C-243.0625 371.8203125 -243.0625 371.8203125 -244 369.125 C-245.23295269 365.60081024 -246.29529973 363.54517371 -249 361 C-249.70328699 359.35899702 -250.4015595 357.71554342 -251.06640625 356.05859375 C-252.12019417 353.73496933 -253.39424302 351.6612996 -254.75 349.5 C-257.84307051 344.49695845 -260.27630871 339.2892984 -262.63964844 333.9140625 C-264.06514749 330.29953884 -264.06514749 330.29953884 -267 328 C-267.27972656 328.72703125 -267.55945313 329.4540625 -267.84765625 330.203125 C-268.92147882 332.80941978 -270.12902013 335.2553281 -271.4375 337.75 C-273.78599209 342.37750216 -275.52385937 347.03152664 -277 352 C-277.66 352 -278.32 352 -279 352 C-279.17015625 352.60328125 -279.3403125 353.2065625 -279.515625 353.828125 C-279.75796875 354.62734375 -280.0003125 355.4265625 -280.25 356.25 C-280.48203125 357.03890625 -280.7140625 357.8278125 -280.953125 358.640625 C-282 361 -282 361 -283.9375 362.90625 C-286.46693751 365.47401232 -287.44148721 367.90602288 -288.75 371.25 C-289.17796875 372.32765625 -289.6059375 373.4053125 -290.046875 374.515625 C-290.36140625 375.33546875 -290.6759375 376.1553125 -291 377 C-291.66 377 -292.32 377 -293 377 C-293.33 378.98 -293.66 380.96 -294 383 C-294.66 383 -295.32 383 -296 383 C-296.20496094 383.84304688 -296.40992188 384.68609375 -296.62109375 385.5546875 C-297.02521484 387.19824219 -297.02521484 387.19824219 -297.4375 388.875 C-297.83775391 390.51082031 -297.83775391 390.51082031 -298.24609375 392.1796875 C-299 395 -299 395 -300 397 C-300.66 397 -301.32 397 -302 397 C-302.37125 398.175625 -302.37125 398.175625 -302.75 399.375 C-304.33931493 403.98401329 -306.16207173 408.48547716 -308 413 C-308.66 413 -309.32 413 -310 413 C-310.37125 414.2065625 -310.37125 414.2065625 -310.75 415.4375 C-312.99998734 421.84996392 -315.90056576 427.95610324 -319 434 C-319.66 434 -320.32 434 -321 434 C-321.144375 434.94875 -321.28875 435.8975 -321.4375 436.875 C-322 440 -322 440 -323 442 C-323.66 442 -324.32 442 -325 442 C-325.144375 442.763125 -325.28875 443.52625 -325.4375 444.3125 C-326 447 -326 447 -327 450 C-327.66 450 -328.32 450 -329 450 C-329.33 451.32 -329.66 452.64 -330 454 C-330.66 454 -331.32 454 -332 454 C-332.37125 455.2375 -332.7425 456.475 -333.125 457.75 C-335.7856801 465.68253926 -339.75917533 472.94708393 -344.0234375 480.12182617 C-347.81885241 486.52569706 -350.49067668 492.77649768 -352.8515625 499.875 C-354.12536817 503.34113786 -355.73668168 506.16224165 -357.8046875 509.19921875 C-360.86337723 513.80724478 -362.95328644 518.8832161 -365 524 C-388.1 524 -411.2 524 -435 524 C-435.33 522.35 -435.66 520.7 -436 519 C-436.66 519 -437.32 519 -438 519 C-438.40992188 517.85660156 -438.81984375 516.71320312 -439.2421875 515.53515625 C-439.78608252 514.04413369 -440.33037389 512.55325567 -440.875 511.0625 C-441.14441406 510.30775391 -441.41382813 509.55300781 -441.69140625 508.77539062 C-442.91619414 504.64902908 -442.91619414 504.64902908 -446 502 C-446.83509168 500.19502991 -447.59370385 498.35435359 -448.3125 496.5 C-450.22265885 491.73877319 -452.35176966 487.3362836 -454.984375 482.9375 C-456 481 -456 481 -456.453125 478.875 C-456.89740935 476.60367827 -456.89740935 476.60367827 -460 475 C-461.02734375 472.96875 -461.02734375 472.96875 -461.9375 470.5 C-462.27394531 469.60925781 -462.61039063 468.71851563 -462.95703125 467.80078125 C-463.30121094 466.87652344 -463.64539063 465.95226562 -464 465 C-464.70347909 463.22723268 -465.41164007 461.45631441 -466.125 459.6875 C-467.11077076 457.22307311 -468.07389312 454.78297777 -468.9296875 452.26953125 C-469.28289062 451.52058594 -469.63609375 450.77164062 -470 450 C-470.99 449.67 -471.98 449.34 -473 449 C-474.18324935 446.55991614 -475.18284934 444.2180504 -476.125 441.6875 C-476.38925781 441.01009766 -476.65351563 440.33269531 -476.92578125 439.63476562 C-478.14734408 436.46304284 -479.29803439 433.33005639 -480 430 C-480.66 430 -481.32 430 -482 430 C-482.33 428.68 -482.66 427.36 -483 426 C-483.66 426 -484.32 426 -485 426 C-485.29003906 425.09507812 -485.29003906 425.09507812 -485.5859375 424.171875 C-485.84632813 423.37265625 -486.10671875 422.5734375 -486.375 421.75 C-486.63023437 420.96109375 -486.88546875 420.1721875 -487.1484375 419.359375 C-487.94112701 416.99751144 -487.94112701 416.99751144 -489.1015625 414.890625 C-490 413 -490 413 -490 410 C-490.66 410 -491.32 410 -492 410 C-492.495 408.515 -492.495 408.515 -493 407 C-493.66 406.67 -494.32 406.34 -495 406 C-495 405.01 -495 404.02 -495 403 C-495.66 403 -496.32 403 -497 403 C-499.07318331 399.06810061 -500.97655462 395.32396428 -502.25 391.0625 C-503.75812379 386.29649552 -505.82217229 381.83244338 -507.9375 377.3125 C-508.27362305 376.58748291 -508.60974609 375.86246582 -508.95605469 375.11547852 C-511.39943075 369.96321916 -513.92935682 365.07064318 -518 361 C-518 359.68 -518 358.36 -518 357 C-518.66 357 -519.32 357 -520 357 C-520.42317708 354.98177083 -520.84635417 352.96354167 -521.26953125 350.9453125 C-521.92308838 348.62953451 -521.92308838 348.62953451 -525 347 C-529.50485158 339.1915906 -532.15971103 330.5208669 -535 322 C-535.99 321.67 -536.98 321.34 -538 321 C-540.60748297 317.2421569 -542.10320111 312.84212519 -543.4375 308.5 C-544.71186681 304.4149464 -546.60097403 301.14902022 -549.01171875 297.62890625 C-550 296 -550 296 -550 294 C-550.66 294 -551.32 294 -552 294 C-553.31626692 290.38026598 -554 287.90432869 -554 284 C-554.66 284 -555.32 284 -556 284 C-558 281 -558 281 -558 278 C-558.66 278 -559.32 278 -560 278 C-560.391875 276.9275 -560.78375 275.855 -561.1875 274.75 C-562.94087704 270.0435669 -564.92064384 265.44105682 -566.9140625 260.83203125 C-567.92001273 258.20859988 -568.54491162 255.76592606 -569 253 C-569.66 253 -570.32 253 -571 253 C-571 252.01 -571 251.02 -571 250 C-571.66 250 -572.32 250 -573 250 C-573 248.35 -573 246.7 -573 245 C-573.66 245 -574.32 245 -575 245 C-575.33 243.35 -575.66 241.7 -576 240 C-576.66 240 -577.32 240 -578 240 C-578.33 238.02 -578.66 236.04 -579 234 C-579.66 234 -580.32 234 -581 234 C-581.59748047 232.64455078 -581.59748047 232.64455078 -582.20703125 231.26171875 C-582.73683594 230.08222656 -583.26664063 228.90273438 -583.8125 227.6875 C-584.33457031 226.51574219 -584.85664062 225.34398437 -585.39453125 224.13671875 C-586.80973138 221.37174137 -587.87932975 220.10914487 -590 218 C-591.16796875 215.37109375 -591.16796875 215.37109375 -592.1875 212.4375 C-592.53167969 211.46683594 -592.87585938 210.49617187 -593.23046875 209.49609375 C-594 207 -594 207 -594 205 C-594.99 205 -595.98 205 -597 205 C-597.67934107 203.77779263 -598.34291523 202.54681549 -599 201.3125 C-599.37125 200.62800781 -599.7425 199.94351563 -600.125 199.23828125 C-601.12558902 196.67873879 -601.0631369 194.72475184 -601 192 C-579.21667921 191.76634502 -557.43356516 191.59003091 -535.64924526 191.48187828 C-525.53421057 191.43032484 -515.41995469 191.36004809 -505.30541992 191.24560547 C-496.48899331 191.14589811 -487.67313069 191.0814101 -478.85615593 191.05911505 C-474.18773549 191.04608271 -469.52092841 191.01548582 -464.85302544 190.94269943 C-460.45714965 190.87471145 -456.06354789 190.85390356 -451.66719627 190.86892319 C-450.05584083 190.86617665 -448.44440779 190.84634171 -446.83350754 190.80794525 C-434.73082016 190.5336735 -434.73082016 190.5336735 -430.5155201 194.10481644 C-426.56547766 199.51775755 -424.45322526 205.49508693 -423 212 C-422.34 212 -421.68 212 -421 212 C-412 229.66803279 -412 229.66803279 -412 233 C-411.34 233 -410.68 233 -410 233 C-409.67 234.65 -409.34 236.3 -409 238 C-408.34 238 -407.68 238 -407 238 C-406.67128906 239.051875 -406.67128906 239.051875 -406.3359375 240.125 C-404.36964372 246.00789522 -402.26277976 250.55775487 -398.171875 255.24609375 C-397 257 -397 257 -397 261 C-396.34 261 -395.68 261 -395 261 C-394.7525 262.0725 -394.505 263.145 -394.25 264.25 C-393.33869308 267.94759994 -393.33869308 267.94759994 -391.15625 269.78125 C-388.42132818 272.59544491 -386.91332201 275.7478019 -385.25 279.25 C-384.55224134 280.68106664 -383.8543198 282.11205386 -383.15625 283.54296875 C-382.62451172 284.64390869 -382.62451172 284.64390869 -382.08203125 285.76708984 C-380.33172981 289.37906119 -378.54156948 292.97087019 -376.75 296.5625 C-376.43321289 297.20413086 -376.11642578 297.84576172 -375.79003906 298.50683594 C-373.67302249 302.76530475 -371.37836949 306.88171677 -369 311 C-368.23441204 312.40830377 -367.48074562 313.82330617 -366.75 315.25 C-366.41484375 315.89453125 -366.0796875 316.5390625 -365.734375 317.203125 C-365 319 -365 319 -365 322 C-364.34 322 -363.68 322 -363 322 C-362.78085937 322.60585938 -362.56171875 323.21171875 -362.3359375 323.8359375 C-360.18371824 329.52269572 -357.59486082 334.57980756 -354.390625 339.7421875 C-351.98232394 343.65229428 -349.87253717 347.4628067 -349 352 C-347.68 352.33 -346.36 352.66 -345 353 C-344.690625 351.906875 -344.38125 350.81375 -344.0625 349.6875 C-343.41662103 347.44592006 -342.7376883 345.2130649 -342 343 C-341.34 343 -340.68 343 -340 343 C-339.80277344 341.9171875 -339.80277344 341.9171875 -339.6015625 340.8125 C-337.52021802 331.0815388 -332.8539642 322.57624574 -328 314 C-327.34 314 -326.68 314 -326 314 C-326 313.34 -326 312.68 -326 312 C-325.34 312 -324.68 312 -324 312 C-323.88785156 311.29488281 -323.77570313 310.58976562 -323.66015625 309.86328125 C-322.93685092 306.72610488 -321.80542309 304.09872094 -320.4375 301.1875 C-319.98246094 300.21167969 -319.52742188 299.23585938 -319.05859375 298.23046875 C-318.70925781 297.49441406 -318.35992187 296.75835938 -318 296 C-317.34 296 -316.68 296 -316 296 C-315.34 293.36 -314.68 290.72 -314 288 C-313.34 288 -312.68 288 -312 288 C-311.731875 286.948125 -311.46375 285.89625 -311.1875 284.8125 C-310.12305588 281.39507415 -308.86739831 279.00407554 -307 276 C-306.30420546 273.80869466 -306.30420546 273.80869466 -306 272 C-305.34 272 -304.68 272 -304 272 C-303.79503906 271.36191406 -303.59007812 270.72382813 -303.37890625 270.06640625 C-302.97478516 268.82697266 -302.97478516 268.82697266 -302.5625 267.5625 C-302.16224609 266.32693359 -302.16224609 266.32693359 -301.75390625 265.06640625 C-301 263 -301 263 -300 262 C-297.88318683 261.9057826 -295.76319242 261.88257239 -293.64428711 261.88647461 C-292.64920387 261.88625557 -292.64920387 261.88625557 -291.63401794 261.8860321 C-289.43176044 261.88673119 -287.22958655 261.89452335 -285.02734375 261.90234375 C-283.50419664 261.90420794 -281.98104893 261.90563184 -280.457901 261.90663147 C-276.44162349 261.91045654 -272.42538192 261.92028672 -268.40911865 261.93133545 C-264.31376634 261.94154981 -260.21840824 261.94612914 -256.12304688 261.95117188 C-248.08201472 261.961909 -240.04101183 261.97898528 -232 262 C-230.39975925 264.99725926 -228.80672176 267.99829201 -227.21484375 271 C-226.5426178 272.25876953 -226.5426178 272.25876953 -225.85681152 273.54296875 C-222.60976222 279.67743993 -219.80509057 285.85457671 -217.25390625 292.3125 C-216.05602269 294.87992646 -215.03658865 296.1150722 -213 298 C-210.69980018 301.76545166 -209.12155353 305.56383735 -207.9375 309.8125 C-206.95712067 313.14578972 -206.33671927 313.68641657 -204 316 C-202.83203125 318.04296875 -202.83203125 318.04296875 -201.8125 320.1875 C-201.46832031 320.90292969 -201.12414062 321.61835937 -200.76953125 322.35546875 C-200.51558594 322.89816406 -200.26164062 323.44085937 -200 324 C-199.34 324 -198.68 324 -198 324 C-196.02 319.71 -194.04 315.42 -192 311 C-191.34 311 -190.68 311 -190 311 C-189.690625 309.72125 -189.38125 308.4425 -189.0625 307.125 C-188.52394756 304.89898325 -188.0263 303.05260001 -187 301 C-186.34 301 -185.68 301 -185 301 C-184.82984375 300.443125 -184.6596875 299.88625 -184.484375 299.3125 C-182.76684063 293.90409391 -180.64657745 289.01937104 -178 284 C-177.34 284 -176.68 284 -176 284 C-175.90920166 283.3294458 -175.81840332 282.6588916 -175.72485352 281.96801758 C-174.80501505 278.20160593 -173.15689599 274.94203632 -171.40234375 271.51171875 C-171.04862198 270.80852005 -170.69490021 270.10532135 -170.33045959 269.3808136 C-169.20509922 267.14681651 -168.07144457 264.91715008 -166.9375 262.6875 C-166.1706718 261.16889848 -165.40438962 259.65002112 -164.63867188 258.13085938 C-162.76542351 254.41734829 -160.88472764 250.70769727 -159 247 C-158.34 247 -157.68 247 -157 247 C-156.67 245.35 -156.34 243.7 -156 242 C-155.34 242 -154.68 242 -154 242 C-153.81824219 241.34773437 -153.63648438 240.69546875 -153.44921875 240.0234375 C-152.02533404 235.07269989 -150.50592766 230.53453577 -148 226 C-147.34 226 -146.68 226 -146 226 C-145.72736328 225.00419922 -145.72736328 225.00419922 -145.44921875 223.98828125 C-142.78647148 214.63452802 -142.78647148 214.63452802 -140 211 C-139.34 211 -138.68 211 -138 211 C-137.84144531 210.38253906 -137.68289063 209.76507813 -137.51953125 209.12890625 C-135.79195772 202.85810067 -133.38825255 197.54441326 -130 192 C-129.34 192 -128.68 192 -128 192 C-127.9175 191.34 -127.835 190.68 -127.75 190 C-126.75240209 186.00960837 -124.92833317 182.61450357 -123 179 C-122.34 179 -121.68 179 -121 179 C-120.86851562 178.00033203 -120.86851562 178.00033203 -120.734375 176.98046875 C-119.77862382 173.10154243 -118.0818337 169.84579967 -116.25 166.3125 C-115.89164063 165.60931641 -115.53328125 164.90613281 -115.1640625 164.18164062 C-114.44690308 162.77440875 -113.72754307 161.36829593 -113.00585938 159.96337891 C-111.65094113 157.31865742 -110.32435736 154.66013159 -109 152 C-108.33333333 150.66666667 -107.66666667 149.33333333 -107 148 C-106.34 148 -105.68 148 -105 148 C-104.9071875 147.32453125 -104.814375 146.6490625 -104.71875 145.953125 C-103.82205733 142.26888772 -102.22760734 139.09765133 -100.5 135.75 C-100.15195312 135.06268799 -99.80390625 134.37537598 -99.4453125 133.66723633 C-97.49924598 129.84540667 -95.50087038 126.05406442 -93.46875 122.27734375 C-92.8509668 121.12637207 -92.8509668 121.12637207 -92.22070312 119.95214844 C-91.41839946 118.46371469 -90.6099734 116.97856186 -89.79492188 115.49707031 C-87.58188322 111.48261191 -87.58188322 111.48261191 -87 107 C-88.03125 106.5875 -89.0625 106.175 -90.125 105.75 C-92.63023204 104.68490135 -94.5400771 103.62794689 -96.8125 102.0625 C-100.97459285 99.3693811 -105.36802184 97.72097212 -110 96 C-108.71738173 92.1521452 -106.93747052 91.15480673 -103.75 88.6875 C-99.56969836 85.36054159 -96.2936582 82.1655089 -93 78 C-88.47368421 74 -88.47368421 74 -86 74 C-86 73.34 -86 72.68 -86 72 C-84.42713316 70.58561594 -82.78860004 69.24395599 -81.125 67.9375 C-76.30698912 64.10047587 -71.7575806 60.08452876 -67.2890625 55.84765625 C-64.93380985 53.94657348 -62.85333007 52.96287287 -60 52 C-60 51.34 -60 50.68 -60 50 C-56.53846154 47 -56.53846154 47 -54 47 C-54 46.34 -54 45.68 -54 45 C-52.30096977 43.48259024 -50.53927277 42.034872 -48.75 40.625 C-45.94686688 38.40770687 -43.26298803 36.2694248 -40.765625 33.7109375 C-39 32 -39 32 -37 32 C-37 31.34 -37 30.68 -37 30 C-32.52941176 26 -32.52941176 26 -30 26 C-30 25.34 -30 24.68 -30 24 C-28.56640625 22.9921875 -28.56640625 22.9921875 -26.5625 21.875 C-20.09655287 17.98398756 -14.55875236 13.0490597 -9.8125 7.1875 C-7.2798659 4.08183975 -4.72799062 2.56055421 -1 1 C-0.67 0.67 -0.34 0.34 0 0 Z " fill="#4D1E64" transform="translate(754,239)"/>
<path d="M0 0 C0.66 0 1.32 0 2 0 C2.24708836 9.7050815 1.80535855 19.12275076 0.78173828 28.77148438 C0.0055376 36.29612931 -0.37224885 43.80446806 -0.57006836 51.36572266 C-0.71081208 55.5848447 -1.04690104 59.53665633 -1.98632812 63.65771484 C-3.07971558 68.96145858 -3.40220563 74.12439806 -3.5625 79.52734375 C-3.59868439 80.50695572 -3.63486877 81.48656769 -3.67214966 82.49586487 C-3.74860184 84.57476189 -3.82170596 86.65378442 -3.8916626 88.73291016 C-4.07354723 94.1130064 -4.28175044 99.49204855 -4.4921875 104.87109375 C-4.53310516 105.92344208 -4.57402283 106.97579041 -4.61618042 108.06002808 C-5.09858762 120.06463166 -5.94141913 132.03224968 -7 144 C-7.61407715 143.84619873 -8.2281543 143.69239746 -8.86083984 143.53393555 C-10.31508513 143.17095513 -11.77037426 142.8121368 -13.2265625 142.45703125 C-19.05657943 140.89033289 -23.72471671 138.61020176 -28.7734375 135.3046875 C-30.89106808 134.06383029 -32.6032885 133.44869941 -35 133 C-35 133.99 -35 134.98 -35 136 C-35.66 136 -36.32 136 -37 136 C-37.20625 136.763125 -37.4125 137.52625 -37.625 138.3125 C-38.81131649 141.49398513 -40.13100633 144.07359585 -41.8125 147 C-45.40873699 153.40607327 -47.70427941 160.04173185 -50 167 C-50.66 167 -51.32 167 -52 167 C-52.12503906 167.72058594 -52.25007812 168.44117188 -52.37890625 169.18359375 C-52.99408166 171.97316275 -53.85608405 174.42221276 -54.9375 177.0625 C-55.44603516 178.31740234 -55.44603516 178.31740234 -55.96484375 179.59765625 C-56.90383963 181.77683537 -57.91384848 183.89101521 -59 186 C-59.66 186 -60.32 186 -61 186 C-61.268125 186.845625 -61.53625 187.69125 -61.8125 188.5625 C-63.0478595 192.13854067 -64.476988 195.53860908 -66 199 C-66.66 199 -67.32 199 -68 199 C-68.10570312 199.72574219 -68.21140625 200.45148438 -68.3203125 201.19921875 C-69.05835377 204.24045778 -70.17648417 206.19712364 -71.875 208.8125 C-74.13795426 212.44824168 -75.78712985 215.82877033 -77.15234375 219.8671875 C-78.2291116 222.57647434 -79.62803375 225.02539584 -81.0625 227.5625 C-82.78968355 230.63824805 -84.30792974 233.45362077 -85.1875 236.875 C-86.02000007 240.07692334 -87.24537749 242.22184769 -89 245 C-89.69822617 246.65369357 -90.37498605 248.31727014 -91 250 C-91.66 250 -92.32 250 -93 250 C-93.20302734 250.84884766 -93.20302734 250.84884766 -93.41015625 251.71484375 C-94.00771866 254.02990342 -94.69532207 256.28982042 -95.4375 258.5625 C-95.68371094 259.32691406 -95.92992187 260.09132813 -96.18359375 260.87890625 C-97 263 -97 263 -99 266 C-99.66 266 -100.32 266 -101 266 C-101.103125 266.639375 -101.20625 267.27875 -101.3125 267.9375 C-102.23903073 272.06477326 -103.61660629 276.00642949 -105 280 C-105.66 280 -106.32 280 -107 280 C-107.33 281.65 -107.66 283.3 -108 285 C-108.66 285 -109.32 285 -110 285 C-110.2475 285.969375 -110.495 286.93875 -110.75 287.9375 C-114.15482955 299.76988636 -114.15482955 299.76988636 -119 303 C-120.12324223 305.27353973 -120.12324223 305.27353973 -121 307.875 C-121.95841642 310.55057916 -122.76022071 312.68903623 -124.5 314.9453125 C-126.36585192 317.50114091 -127.04416264 319.98800088 -128 323 C-129.01011463 325.28504309 -130.05474153 327.55500132 -131.125 329.8125 C-131.42704346 330.45195557 -131.72908691 331.09141113 -132.0402832 331.75024414 C-132.6868849 333.1189257 -133.33478954 334.48699235 -133.98388672 335.85449219 C-135.02794927 338.05901447 -136.06384954 340.26721366 -137.09765625 342.4765625 C-137.79422077 343.96356512 -138.49083426 345.4505448 -139.1875 346.9375 C-139.50799316 347.62239502 -139.82848633 348.30729004 -140.15869141 349.01293945 C-143.51930844 356.16313314 -147.01825064 363.17414395 -151 370 C-151.66 370 -152.32 370 -153 370 C-153.4640625 371.8871875 -153.4640625 371.8871875 -153.9375 373.8125 C-154.53978048 376.26177394 -155.20088641 378.60265923 -156 381 C-156.66 381 -157.32 381 -158 381 C-158.268125 381.845625 -158.53625 382.69125 -158.8125 383.5625 C-162.11111111 393.11111111 -162.11111111 393.11111111 -164 395 C-166.05556661 395.09413687 -168.11440181 395.11742998 -170.17211914 395.11352539 C-170.81600082 395.11367142 -171.45988251 395.11381744 -172.12327576 395.1139679 C-174.26060303 395.11326885 -176.39784413 395.10547691 -178.53515625 395.09765625 C-180.01346285 395.09579204 -181.49177007 395.09436815 -182.97007751 395.09336853 C-186.86798802 395.08954359 -190.76586149 395.07971352 -194.66375732 395.06866455 C-198.63846333 395.05844992 -202.61317529 395.0538708 -206.58789062 395.04882812 C-214.391944 395.03809122 -222.19596682 395.02101509 -230 395 C-230.33410889 394.25306885 -230.66821777 393.5061377 -231.01245117 392.73657227 C-231.45564697 391.75229248 -231.89884277 390.7680127 -232.35546875 389.75390625 C-232.79270264 388.7801001 -233.22993652 387.80629395 -233.68041992 386.80297852 C-234.79613618 384.43303618 -235.98117336 382.19017227 -237.3125 379.9375 C-239 377 -239 377 -239 375 C-239.99 374.67 -240.98 374.34 -242 374 C-243.0625 371.8203125 -243.0625 371.8203125 -244 369.125 C-245.23966575 365.42924979 -245.23966575 365.42924979 -247.61328125 362.44140625 C-249 361 -249 361 -249.29296875 358.95703125 C-249.1953125 356.97135417 -249.09765625 354.98567708 -249 353 C-249.66 353 -250.32 353 -251 353 C-251 351.68 -251 350.36 -251 349 C-251.66 349 -252.32 349 -253 349 C-254.89926941 345.7534745 -256.73514481 342.47495872 -258.5625 339.1875 C-259.09552734 338.27806641 -259.62855469 337.36863281 -260.17773438 336.43164062 C-263.84431769 329.73716915 -264.94871815 324.49413447 -263 317 C-261.1875 314.5 -261.1875 314.5 -259 312 C-257.88870142 309.205167 -256.94175364 306.38832685 -256.02734375 303.5234375 C-254.98748772 300.96926642 -254.02097241 299.80909627 -252 298 C-250.82425289 295.90010348 -250.82425289 295.90010348 -250 294 C-249.34 294 -248.68 294 -248 294 C-247.67 291.36 -247.34 288.72 -247 286 C-246.34 286 -245.68 286 -245 286 C-244.88398438 285.28972656 -244.76796875 284.57945312 -244.6484375 283.84765625 C-243.95790863 280.81515295 -242.92131191 278.26188868 -241.625 275.4375 C-241.20476563 274.50808594 -240.78453125 273.57867188 -240.3515625 272.62109375 C-239.09065528 270.17580837 -237.69094448 268.15935015 -236 266 C-235.30419733 264.68163705 -234.62775567 263.35208914 -234 262 C-231 263 -231 263 -229.71313477 264.97436523 C-229.08362915 266.25355835 -229.08362915 266.25355835 -228.44140625 267.55859375 C-227.97283203 268.50283203 -227.50425781 269.44707031 -227.02148438 270.41992188 C-226.54001953 271.41572266 -226.05855469 272.41152344 -225.5625 273.4375 C-225.08490234 274.39849609 -224.60730469 275.35949219 -224.11523438 276.34960938 C-221.44285992 281.78600349 -219.03891544 287.23020013 -216.97241211 292.92602539 C-215.93518733 295.1382334 -214.7862352 296.36166772 -213 298 C-210.69980018 301.76545166 -209.12155353 305.56383735 -207.9375 309.8125 C-206.95712067 313.14578972 -206.33671927 313.68641657 -204 316 C-202.83203125 318.04296875 -202.83203125 318.04296875 -201.8125 320.1875 C-201.46832031 320.90292969 -201.12414062 321.61835937 -200.76953125 322.35546875 C-200.51558594 322.89816406 -200.26164063 323.44085937 -200 324 C-199.34 324 -198.68 324 -198 324 C-196.02 319.71 -194.04 315.42 -192 311 C-191.34 311 -190.68 311 -190 311 C-189.5359375 309.081875 -189.5359375 309.081875 -189.0625 307.125 C-188.52394756 304.89898325 -188.0263 303.05260001 -187 301 C-186.34 301 -185.68 301 -185 301 C-184.82984375 300.443125 -184.6596875 299.88625 -184.484375 299.3125 C-182.76684063 293.90409391 -180.64657745 289.01937104 -178 284 C-177.34 284 -176.68 284 -176 284 C-175.90920166 283.3294458 -175.81840332 282.6588916 -175.72485352 281.96801758 C-174.80501505 278.20160593 -173.15689599 274.94203632 -171.40234375 271.51171875 C-171.04862198 270.80852005 -170.69490021 270.10532135 -170.33045959 269.3808136 C-169.20509922 267.14681651 -168.07144457 264.91715008 -166.9375 262.6875 C-166.1706718 261.16889848 -165.40438962 259.65002112 -164.63867188 258.13085938 C-162.76542351 254.41734829 -160.88472764 250.70769727 -159 247 C-158.34 247 -157.68 247 -157 247 C-156.67 245.35 -156.34 243.7 -156 242 C-155.34 242 -154.68 242 -154 242 C-153.81824219 241.34773437 -153.63648438 240.69546875 -153.44921875 240.0234375 C-152.02533404 235.07269989 -150.50592766 230.53453577 -148 226 C-147.34 226 -146.68 226 -146 226 C-145.81824219 225.33613281 -145.63648438 224.67226563 -145.44921875 223.98828125 C-142.78647148 214.63452802 -142.78647148 214.63452802 -140 211 C-139.34 211 -138.68 211 -138 211 C-137.76216797 210.07380859 -137.76216797 210.07380859 -137.51953125 209.12890625 C-135.79195772 202.85810067 -133.38825255 197.54441326 -130 192 C-129.34 192 -128.68 192 -128 192 C-127.9175 191.34 -127.835 190.68 -127.75 190 C-126.75240209 186.00960837 -124.92833317 182.61450357 -123 179 C-122.34 179 -121.68 179 -121 179 C-120.91234375 178.33355469 -120.8246875 177.66710937 -120.734375 176.98046875 C-119.77862382 173.10154243 -118.0818337 169.84579967 -116.25 166.3125 C-115.89164063 165.60931641 -115.53328125 164.90613281 -115.1640625 164.18164062 C-114.44690308 162.77440875 -113.72754307 161.36829593 -113.00585938 159.96337891 C-111.65094113 157.31865742 -110.32435736 154.66013159 -109 152 C-108.33333333 150.66666667 -107.66666667 149.33333333 -107 148 C-106.34 148 -105.68 148 -105 148 C-104.9071875 147.32453125 -104.814375 146.6490625 -104.71875 145.953125 C-103.82205733 142.26888772 -102.22760734 139.09765133 -100.5 135.75 C-100.15195312 135.06268799 -99.80390625 134.37537598 -99.4453125 133.66723633 C-97.49924598 129.84540667 -95.50087038 126.05406442 -93.46875 122.27734375 C-93.05689453 121.5100293 -92.64503906 120.74271484 -92.22070312 119.95214844 C-91.41839946 118.46371469 -90.6099734 116.97856186 -89.79492188 115.49707031 C-87.58188322 111.48261191 -87.58188322 111.48261191 -87 107 C-88.03125 106.5875 -89.0625 106.175 -90.125 105.75 C-92.63023204 104.68490135 -94.5400771 103.62794689 -96.8125 102.0625 C-100.97459285 99.3693811 -105.36802184 97.72097212 -110 96 C-108.71738173 92.1521452 -106.93747052 91.15480673 -103.75 88.6875 C-99.56969836 85.36054159 -96.2936582 82.1655089 -93 78 C-88.47368421 74 -88.47368421 74 -86 74 C-86 73.34 -86 72.68 -86 72 C-84.42713316 70.58561594 -82.78860004 69.24395599 -81.125 67.9375 C-76.30698912 64.10047587 -71.7575806 60.08452876 -67.2890625 55.84765625 C-64.93380985 53.94657348 -62.85333007 52.96287287 -60 52 C-60 51.34 -60 50.68 -60 50 C-56.53846154 47 -56.53846154 47 -54 47 C-54 46.34 -54 45.68 -54 45 C-52.30096977 43.48259024 -50.53927277 42.034872 -48.75 40.625 C-45.94686688 38.40770687 -43.26298803 36.2694248 -40.765625 33.7109375 C-39 32 -39 32 -37 32 C-37 31.34 -37 30.68 -37 30 C-32.52941176 26 -32.52941176 26 -30 26 C-30 25.34 -30 24.68 -30 24 C-28.56640625 22.9921875 -28.56640625 22.9921875 -26.5625 21.875 C-20.09655287 17.98398756 -14.55875236 13.0490597 -9.8125 7.1875 C-7.2798659 4.08183975 -4.72799062 2.56055421 -1 1 C-0.67 0.67 -0.34 0.34 0 0 Z " fill="#0F8846" transform="translate(754,239)"/>
<path d="M0 0 C1.1702623 0.00222061 2.3405246 0.00444122 3.54624939 0.00672913 C4.51207191 0.00651009 4.51207191 0.00651009 5.49740601 0.00628662 C7.63473327 0.00698567 9.77197438 0.01477761 11.9092865 0.02259827 C13.3875931 0.02446248 14.86590032 0.02588637 16.34420776 0.02688599 C20.24211827 0.03071093 24.13999174 0.040541 28.03788757 0.05158997 C32.01259358 0.0618046 35.98730554 0.06638372 39.96202087 0.07142639 C47.76607425 0.0821633 55.57009707 0.09923942 63.37413025 0.12025452 C60.62413025 6.87025452 60.62413025 6.87025452 58.37413025 9.12025452 C57.6571795 10.70258722 56.99660089 12.31092671 56.37413025 13.93275452 C56.04413025 14.78482483 55.71413025 15.63689514 55.37413025 16.51478577 C55.04413025 17.37459045 54.71413025 18.23439514 54.37413025 19.12025452 C53.70985033 20.7878739 53.04388886 22.45482796 52.37413025 24.12025452 C51.71413025 24.12025452 51.05413025 24.12025452 50.37413025 24.12025452 C50.43600525 25.04837952 50.49788025 25.97650452 50.56163025 26.93275452 C50.37413025 30.12025452 50.37413025 30.12025452 49.06163025 31.68275452 C48.50475525 32.15712952 47.94788025 32.63150452 47.37413025 33.12025452 C43.90313404 38.40220527 41.15617828 44.15998655 38.74913025 49.99525452 C37.37413025 53.12025452 37.37413025 53.12025452 35.37413025 55.12025452 C33.62794249 60.32938767 33.65811748 65.01318613 36.026474 69.97181702 C37.39764627 72.5812712 38.87920609 75.11151857 40.3936615 77.63978577 C42.21103764 80.68171316 43.38567767 83.70512472 44.37413025 87.12025452 C45.03413025 87.12025452 45.69413025 87.12025452 46.37413025 87.12025452 C46.37413025 88.44025452 46.37413025 89.76025452 46.37413025 91.12025452 C47.03413025 91.12025452 47.69413025 91.12025452 48.37413025 91.12025452 C48.04413025 92.44025452 47.71413025 93.76025452 47.37413025 95.12025452 C43.04520819 89.50897673 40.10968436 83.68393347 37.18663025 77.24525452 C36.3238468 75.34941814 35.45563798 73.45603831 34.5811615 71.56556702 C34.20451355 70.7355719 33.8278656 69.90557678 33.43980408 69.0504303 C32.5226763 66.95833728 32.5226763 66.95833728 30.37413025 66.12025452 C30.09440369 66.84728577 29.81467712 67.57431702 29.526474 68.32337952 C28.45265143 70.9296743 27.24511012 73.37558261 25.93663025 75.87025452 C23.58813816 80.49775668 21.85027088 85.15178116 20.37413025 90.12025452 C19.71413025 90.12025452 19.05413025 90.12025452 18.37413025 90.12025452 C18.203974 90.72353577 18.03381775 91.32681702 17.85850525 91.94837952 C17.6161615 92.74759827 17.37381775 93.54681702 17.12413025 94.37025452 C16.77608337 95.55361389 16.77608337 95.55361389 16.42100525 96.76087952 C15.37413025 99.12025452 15.37413025 99.12025452 13.43663025 101.02650452 C10.90719274 103.59426683 9.93264304 106.0262774 8.62413025 109.37025452 C8.1961615 110.44791077 7.76819275 111.52556702 7.32725525 112.63587952 C7.012724 113.45572327 6.69819275 114.27556702 6.37413025 115.12025452 C5.71413025 115.12025452 5.05413025 115.12025452 4.37413025 115.12025452 C4.04413025 117.10025452 3.71413025 119.08025452 3.37413025 121.12025452 C2.71413025 121.12025452 2.05413025 121.12025452 1.37413025 121.12025452 C1.06668884 122.38482483 1.06668884 122.38482483 0.7530365 123.67494202 C0.34891541 125.3184967 0.34891541 125.3184967 -0.06336975 126.99525452 C-0.33020569 128.08580139 -0.59704163 129.17634827 -0.8719635 130.29994202 C-1.62586975 133.12025452 -1.62586975 133.12025452 -2.62586975 135.12025452 C-3.28586975 135.12025452 -3.94586975 135.12025452 -4.62586975 135.12025452 C-4.99711975 136.29587952 -4.99711975 136.29587952 -5.37586975 137.49525452 C-6.96518468 142.1042678 -8.78794148 146.60573168 -10.62586975 151.12025452 C-11.28586975 151.12025452 -11.94586975 151.12025452 -12.62586975 151.12025452 C-12.99711975 152.32681702 -12.99711975 152.32681702 -13.37586975 153.55775452 C-15.62585709 159.97021843 -18.52643551 166.07635776 -21.62586975 172.12025452 C-22.28586975 172.12025452 -22.94586975 172.12025452 -23.62586975 172.12025452 C-23.84243225 173.54337952 -23.84243225 173.54337952 -24.06336975 174.99525452 C-24.62586975 178.12025452 -24.62586975 178.12025452 -25.62586975 180.12025452 C-26.28586975 180.12025452 -26.94586975 180.12025452 -27.62586975 180.12025452 C-27.77024475 180.88337952 -27.91461975 181.64650452 -28.06336975 182.43275452 C-28.62586975 185.12025452 -28.62586975 185.12025452 -29.62586975 188.12025452 C-30.28586975 188.12025452 -30.94586975 188.12025452 -31.62586975 188.12025452 C-31.95586975 189.44025452 -32.28586975 190.76025452 -32.62586975 192.12025452 C-33.28586975 192.12025452 -33.94586975 192.12025452 -34.62586975 192.12025452 C-34.99711975 193.35775452 -35.36836975 194.59525452 -35.75086975 195.87025452 C-38.41154985 203.80279378 -42.38504508 211.06733845 -46.64930725 218.24208069 C-50.44472216 224.64595158 -53.11654643 230.8967522 -55.47743225 237.99525452 C-56.75123792 241.46139238 -58.36255143 244.28249617 -60.43055725 247.31947327 C-63.48924698 251.9274993 -65.57915619 257.00347061 -67.62586975 262.12025452 C-90.72586975 262.12025452 -113.82586975 262.12025452 -137.62586975 262.12025452 C-137.95586975 260.47025452 -138.28586975 258.82025452 -138.62586975 257.12025452 C-139.28586975 257.12025452 -139.94586975 257.12025452 -140.62586975 257.12025452 C-140.13086975 255.14025452 -140.13086975 255.14025452 -139.62586975 253.12025452 C-138.63586975 254.11025452 -137.64586975 255.10025452 -136.62586975 256.12025452 C-133.81923304 253.31361781 -132.55833574 249.87562894 -130.93836975 246.30775452 C-127.44821972 238.74119311 -123.67780992 231.40108451 -119.62586975 224.12025452 C-118.96586975 224.12025452 -118.30586975 224.12025452 -117.62586975 224.12025452 C-117.48149475 223.17150452 -117.33711975 222.22275452 -117.18836975 221.24525452 C-116.62586975 218.12025452 -116.62586975 218.12025452 -115.62586975 216.12025452 C-114.96586975 216.12025452 -114.30586975 216.12025452 -113.62586975 216.12025452 C-112.63586975 212.49025452 -111.64586975 208.86025452 -110.62586975 205.12025452 C-109.96586975 205.12025452 -109.30586975 205.12025452 -108.62586975 205.12025452 C-108.54336975 204.21275452 -108.46086975 203.30525452 -108.37586975 202.37025452 C-107.62586975 199.12025452 -107.62586975 199.12025452 -105.739151 197.24525452 C-103.40943211 194.90261666 -102.37034966 192.88968004 -101.06336975 189.87025452 C-100.64313538 188.90861389 -100.222901 187.94697327 -99.78993225 186.95619202 C-98.77607103 184.48618113 -97.83675527 182.00891905 -96.93836975 179.49525452 C-95.62586975 176.12025452 -95.62586975 176.12025452 -93.62586975 175.12025452 C-92.92942991 173.13042639 -92.27099375 171.12730695 -91.62586975 169.12025452 C-90.34526617 166.09605991 -88.99281263 163.10629478 -87.62586975 160.12025452 C-86.96586975 160.12025452 -86.30586975 160.12025452 -85.62586975 160.12025452 C-85.52274475 159.23337952 -85.41961975 158.34650452 -85.31336975 157.43275452 C-84.58767644 153.93623221 -83.47644748 152.14654333 -81.62586975 149.12025452 C-79.91599071 145.83644326 -78.30516409 142.50261176 -76.67469788 139.17884827 C-74.47465404 134.72789253 -72.12850879 130.40889322 -69.62586975 126.12025452 C-68.96586975 126.12025452 -68.30586975 126.12025452 -67.62586975 126.12025452 C-67.48149475 125.17150452 -67.33711975 124.22275452 -67.18836975 123.24525452 C-66.62586975 120.12025452 -66.62586975 120.12025452 -65.62586975 118.12025452 C-64.96586975 118.12025452 -64.30586975 118.12025452 -63.62586975 118.12025452 C-61.87737304 113.81626261 -60.24883365 109.47274861 -58.62586975 105.12025452 C-57.96586975 105.12025452 -57.30586975 105.12025452 -56.62586975 105.12025452 C-56.48149475 104.17150452 -56.33711975 103.22275452 -56.18836975 102.24525452 C-55.62586975 99.12025452 -55.62586975 99.12025452 -54.62586975 97.12025452 C-54.07876623 90.99269513 -55.22458798 86.90711733 -57.75086975 81.31947327 C-58.62586975 79.12025452 -58.62586975 79.12025452 -58.62586975 76.12025452 C-55.00575618 80.78829569 -52.91909043 84.35954422 -51.62586975 90.12025452 C-49.64586975 90.61525452 -49.64586975 90.61525452 -47.62586975 91.12025452 C-47.16180725 89.48056702 -47.16180725 89.48056702 -46.68836975 87.80775452 C-46.04249078 85.56617457 -45.36355805 83.33331942 -44.62586975 81.12025452 C-43.96586975 81.12025452 -43.30586975 81.12025452 -42.62586975 81.12025452 C-42.49438538 80.39837952 -42.362901 79.67650452 -42.22743225 78.93275452 C-40.14608777 69.20179332 -35.47983395 60.69650026 -30.62586975 52.12025452 C-29.96586975 52.12025452 -29.30586975 52.12025452 -28.62586975 52.12025452 C-28.62586975 51.46025452 -28.62586975 50.80025452 -28.62586975 50.12025452 C-27.96586975 50.12025452 -27.30586975 50.12025452 -26.62586975 50.12025452 C-26.51372131 49.41513733 -26.40157288 48.71002014 -26.286026 47.98353577 C-25.56272067 44.8463594 -24.43129284 42.21897545 -23.06336975 39.30775452 C-22.60833069 38.3319342 -22.15329163 37.35611389 -21.6844635 36.35072327 C-21.16045959 35.24664124 -21.16045959 35.24664124 -20.62586975 34.12025452 C-19.96586975 34.12025452 -19.30586975 34.12025452 -18.62586975 34.12025452 C-17.96586975 31.48025452 -17.30586975 28.84025452 -16.62586975 26.12025452 C-15.96586975 26.12025452 -15.30586975 26.12025452 -14.62586975 26.12025452 C-14.22368225 24.54244202 -14.22368225 24.54244202 -13.81336975 22.93275452 C-12.74892563 19.51532867 -11.49326806 17.12433006 -9.62586975 14.12025452 C-8.93007521 11.92894917 -8.93007521 11.92894917 -8.62586975 10.12025452 C-7.96586975 10.12025452 -7.30586975 10.12025452 -6.62586975 10.12025452 C-6.31842834 9.16312561 -6.31842834 9.16312561 -6.004776 8.18666077 C-5.60065491 6.94722717 -5.60065491 6.94722717 -5.18836975 5.68275452 C-4.92153381 4.85904358 -4.65469788 4.03533264 -4.379776 3.18666077 C-3.29273765 0.20716186 -3.26877828 0.1496972 0 0 Z " fill="#57276E" transform="translate(456.62586975097656,500.87974548339844)"/>
<path d="M0 0 C3 1 3 1 4.28686523 2.97436523 C4.70653564 3.82716064 5.12620605 4.67995605 5.55859375 5.55859375 C6.02716797 6.50283203 6.49574219 7.44707031 6.97851562 8.41992188 C7.45998047 9.41572266 7.94144531 10.41152344 8.4375 11.4375 C8.91509766 12.39849609 9.39269531 13.35949219 9.88476562 14.34960938 C12.55714008 19.78600349 14.96108456 25.23020013 17.02758789 30.92602539 C18.06481267 33.1382334 19.2137648 34.36166772 21 36 C23.30019982 39.76545166 24.87844647 43.56383735 26.0625 47.8125 C27.04287933 51.14578972 27.66328073 51.68641657 30 54 C31.16796875 56.04296875 31.16796875 56.04296875 32.1875 58.1875 C32.53167969 58.90292969 32.87585938 59.61835937 33.23046875 60.35546875 C33.48441406 60.89816406 33.73835937 61.44085937 34 62 C34.66 62 35.32 62 36 62 C37.98 57.71 39.96 53.42 42 49 C43 53 43 53 42.22265625 54.89453125 C41.45337556 56.16630505 40.68255792 57.43715053 39.91015625 58.70703125 C38.38666116 62.5451927 38.28019631 66.0783918 39.74194336 69.98071289 C40.74430812 72.06920337 41.81657979 74.0977631 42.9375 76.125 C47.44230895 84.44994917 47.44230895 84.44994917 48 89 C48.66 89 49.32 89 50 89 C63 114.70967742 63 114.70967742 63 118 C63.66 118 64.32 118 65 118 C65.67667998 119.24460783 66.34094719 120.49596896 67 121.75 C67.37125 122.44609375 67.7425 123.1421875 68.125 123.859375 C69 126 69 126 69 130 C69.99 129.67 70.98 129.34 72 129 C71.34 130.32 70.68 131.64 70 133 C48.22 133 26.44 133 4 133 C2.35 129.37 0.7 125.74 -1 122 C-2.32946196 119.66445871 -3.66133074 117.33027613 -5 115 C-5 114.34 -5 113.68 -5 113 C-6.485 112.505 -6.485 112.505 -8 112 C-9.0625 109.8203125 -9.0625 109.8203125 -10 107.125 C-11.23966575 103.42924979 -11.23966575 103.42924979 -13.61328125 100.44140625 C-15 99 -15 99 -15.29296875 96.95703125 C-15.1953125 94.97135417 -15.09765625 92.98567708 -15 91 C-15.66 91 -16.32 91 -17 91 C-17 89.68 -17 88.36 -17 87 C-17.66 87 -18.32 87 -19 87 C-20.89926941 83.7534745 -22.73514481 80.47495872 -24.5625 77.1875 C-25.09552734 76.27806641 -25.62855469 75.36863281 -26.17773438 74.43164062 C-29.84431769 67.73716915 -30.94871815 62.49413447 -29 55 C-27.1875 52.5 -27.1875 52.5 -25 50 C-23.88870142 47.205167 -22.94175364 44.38832685 -22.02734375 41.5234375 C-20.98748772 38.96926642 -20.02097241 37.80909627 -18 36 C-16.82425289 33.90010348 -16.82425289 33.90010348 -16 32 C-15.34 32 -14.68 32 -14 32 C-13.67 29.36 -13.34 26.72 -13 24 C-12.34 24 -11.68 24 -11 24 C-10.88398438 23.28972656 -10.76796875 22.57945312 -10.6484375 21.84765625 C-9.95790863 18.81515295 -8.92131191 16.26188868 -7.625 13.4375 C-6.99464844 12.04337891 -6.99464844 12.04337891 -6.3515625 10.62109375 C-5.09065528 8.17580837 -3.69094448 6.15935015 -2 4 C-1.30419733 2.68163705 -0.62775567 1.35208914 0 0 Z " fill="#079352" transform="translate(520,501)"/>
<path d="M0 0 C17.71359188 -0.73920708 17.71359188 -0.73920708 24.9375 5.5625 C25.9584375 6.7690625 25.9584375 6.7690625 27 8 C27.66 8.66 28.32 9.32 29 10 C32.89739027 19.29652726 33.15506466 28.26260161 29.98828125 37.79296875 C28.50166583 41.11288065 26.90870537 42.81847097 24 45 C23.01 45 22.02 45 21 45 C21 45.66 21 46.32 21 47 C17.62902617 48.49821059 15.79557881 49 12 49 C12 49.66 12 50.32 12 51 C-2.90108502 51.81774247 -2.90108502 51.81774247 -9 47 C-14.79110537 41.3895139 -17.13605577 37.42776511 -17.28320312 29.37304688 C-17.29287109 28.52806641 -17.30253906 27.68308594 -17.3125 26.8125 C-17.34150391 25.98685547 -17.37050781 25.16121094 -17.40039062 24.31054688 C-17.47164363 17.35515701 -15.77529234 12.27198896 -11.25390625 6.94140625 C-7.84255131 4.16032474 -5.49235007 2.52851177 -1 2 C-0.67 1.34 -0.34 0.68 0 0 Z " fill="#6F4780" transform="translate(788,224)"/>
<path d="M0 0 C1.32 0 2.64 0 4 0 C4.66 3.96 5.32 7.92 6 12 C6.66 12 7.32 12 8 12 C8.99 14.31 9.98 16.62 11 19 C17.27 19.33 23.54 19.66 30 20 C28.87591241 25.62043796 28.87591241 25.62043796 25.1875 28.125 C24.50042969 28.60195313 23.81335938 29.07890625 23.10546875 29.5703125 C22.41066406 30.04210937 21.71585937 30.51390625 21 31 C19.66196717 31.99370314 18.3272243 32.99190604 17 34 C17.48545907 39.34004973 18.49158971 43.90107118 20.37890625 48.921875 C21 51 21 51 21 55 C18.33333333 54.33333333 15.66666667 53.66666667 13 53 C13 52.01 13 51.02 13 50 C10.03 49.505 10.03 49.505 7 49 C6.505 47.02 6.505 47.02 6 45 C-0.37970358 46.46335253 -4.9248068 48.14926825 -9.625 52.79296875 C-11 54 -11 54 -13 54 C-13.34841982 49.35440233 -12.45112494 46.17964609 -10.734375 41.96875 C-9.7611366 39.35964279 -9.34442127 36.75537018 -9 34 C-9.53625 33.896875 -10.0725 33.79375 -10.625 33.6875 C-13.6711608 32.80571661 -16.25527994 31.58583826 -19 30 C-19.33 29.01 -19.66 28.02 -20 27 C-20.99 26.67 -21.98 26.34 -23 26 C-23 25.34 -23 24.68 -23 24 C-23.99 23.67 -24.98 23.34 -26 23 C-26 22.34 -26 21.68 -26 21 C-15.605 20.505 -15.605 20.505 -5 20 C-2.99132786 14.64354096 -1.61044682 10.90148619 -0.8125 5.5 C-0.57466797 3.93765625 -0.57466797 3.93765625 -0.33203125 2.34375 C-0.16767578 1.18359375 -0.16767578 1.18359375 0 0 Z " fill="#128948" transform="translate(483,424)"/>
<path d="M0 0 C-0.75 4.75 -0.75 4.75 -3 7 C-3.45811675 8.97235333 -3.45811675 8.97235333 -3.625 11.125 C-3.74875 12.40375 -3.8725 13.6825 -4 15 C-4.99 15.33 -5.98 15.66 -7 16 C-7.99 12.37 -8.98 8.74 -10 5 C-11.32 4.67 -12.64 4.34 -14 4 C-14 9.61 -14 15.22 -14 21 C-13.34 20.67 -12.68 20.34 -12 20 C-11.34786708 17.97536745 -11.34786708 17.97536745 -11 16 C-10.34 16 -9.68 16 -9 16 C-8.34 17.32 -7.68 18.64 -7 20 C-6.34 20 -5.68 20 -5 20 C-4.34 18.68 -3.68 17.36 -3 16 C-2.34 16 -1.68 16 -1 16 C-1 17.65 -1 19.3 -1 21 C-0.01 21 0.98 21 2 21 C2 16.05 2 11.1 2 6 C3.32 6.33 4.64 6.66 6 7 C6.85786911 23.75227733 6.85786911 23.75227733 2 30 C-2.79720317 34.47036075 -7.76122157 35.34535015 -14.1875 35.5625 C-19.61208738 35.32943502 -23.07436925 35.02377152 -27 31 C-31.66345032 25.67499045 -33.78891423 21.38707334 -33.34375 14.2421875 C-32.93982573 11.60749967 -32.25612247 9.35522963 -31 7 C-30.34 7 -29.68 7 -29 7 C-28.79375 7.78375 -28.5875 8.5675 -28.375 9.375 C-26.52806016 12.90097605 -24.67219553 12.8280227 -21 14 C-20.0625 16.0625 -20.0625 16.0625 -20 18 C-21 19 -21 19 -24.0625 19.0625 C-25.031875 19.041875 -26.00125 19.02125 -27 19 C-27 19.66 -27 20.32 -27 21 C-21.98464948 20.67039784 -21.98464948 20.67039784 -18 18 C-17.76999802 15.47570505 -17.76999802 15.47570505 -19 13 C-22.47307328 11.13016255 -22.47307328 11.13016255 -26 10 C-26 9.01 -26 8.02 -26 7 C-23.69 7.33 -21.38 7.66 -19 8 C-19.66 7.01 -20.32 6.02 -21 5 C-24.58357241 4.74984127 -24.58357241 4.74984127 -28 5 C-26.1341501 0.49086273 -23.67517913 -1.27662719 -19.25 -3.1875 C-11.47801526 -5.13049619 -6.72117338 -4.00410329 0 0 Z " fill="#F4F2F5" transform="translate(808,233)"/>
<path d="M0 0 C2.90497155 2.90497155 2.3544517 5.95399306 2.4140625 9.8515625 C2.43342865 10.62559418 2.4527948 11.39962585 2.4727478 12.19711304 C2.5325983 14.67296275 2.57895011 17.14885883 2.625 19.625 C2.66317482 21.30210377 2.70222625 22.97918784 2.7421875 24.65625 C2.83830409 28.77067353 2.92231439 32.88518886 3 37 C2.01 37 1.02 37 0 37 C0 37.66 0 38.32 0 39 C-0.66 39 -1.32 39 -2 39 C-2 39.66 -2 40.32 -2 41 C-3.8984375 42.7265625 -3.8984375 42.7265625 -6.375 44.625 C-7.18710937 45.25664062 -7.99921875 45.88828125 -8.8359375 46.5390625 C-11 48 -11 48 -13 48 C-13.34841982 43.35440233 -12.45112494 40.17964609 -10.734375 35.96875 C-9.7611366 33.35964279 -9.34442127 30.75537018 -9 28 C-9.53625 27.896875 -10.0725 27.79375 -10.625 27.6875 C-13.6711608 26.80571661 -16.25527994 25.58583826 -19 24 C-19.33 23.01 -19.66 22.02 -20 21 C-20.99 20.67 -21.98 20.34 -23 20 C-23 19.34 -23 18.68 -23 18 C-23.99 17.67 -24.98 17.34 -26 17 C-26 16.34 -26 15.68 -26 15 C-15.605 14.505 -15.605 14.505 -5 14 C-3.35 9.38 -1.7 4.76 0 0 Z " fill="#502D65" transform="translate(483,430)"/>
<path d="M0 0 C1 3 1 3 -0.44140625 6.37109375 C-1.13854502 7.73167681 -1.84625942 9.0868749 -2.5625 10.4375 C-3.31127085 11.8892853 -4.05996819 13.34110852 -4.80859375 14.79296875 C-5.18226074 15.50888184 -5.55592773 16.22479492 -5.94091797 16.96240234 C-7.36840254 19.70877999 -8.74815337 22.47794878 -10.125 25.25 C-14.5625 34.125 -14.5625 34.125 -19 43 C-19.66 43 -20.32 43 -21 43 C-21.17015625 43.65226563 -21.3403125 44.30453125 -21.515625 44.9765625 C-23.01156698 50.37150218 -24.68964611 54.42392256 -28 59 C-31.27832932 64.3768777 -33.87753266 69.85084163 -36.10546875 75.73828125 C-36.95948797 77.89757002 -37.93018068 79.94047999 -39 82 C-39.66 82 -40.32 82 -41 82 C-41.12375 82.721875 -41.2475 83.44375 -41.375 84.1875 C-41.9904931 86.95721894 -42.88444374 89.3970354 -44 92 C-44.66 92 -45.32 92 -46 92 C-46.0928125 93.2375 -46.0928125 93.2375 -46.1875 94.5 C-46.92265176 97.66680758 -47.53116204 99.05792851 -49.26171875 101.6640625 C-52.46893167 106.65089097 -55.11750306 111.8803777 -57.78125 117.171875 C-58.34199219 118.25855469 -58.34199219 118.25855469 -58.9140625 119.3671875 C-59.4083374 120.34341064 -59.4083374 120.34341064 -59.91259766 121.33935547 C-61 123 -61 123 -64 125 C-63.53035064 119.0276256 -61.66780335 114.87151282 -58.75 109.6875 C-57.93274212 108.19317378 -57.11633229 106.69838344 -56.30078125 105.203125 C-55.70837646 104.12708008 -55.70837646 104.12708008 -55.10400391 103.02929688 C-52.95433896 99.0779446 -50.97554598 95.04043825 -49 91 C-48.34 91 -47.68 91 -47 91 C-46.855625 90.05125 -46.71125 89.1025 -46.5625 88.125 C-46 85 -46 85 -45 83 C-44.34 83 -43.68 83 -43 83 C-42.01 79.37 -41.02 75.74 -40 72 C-39.34 72 -38.68 72 -38 72 C-37.9175 71.0925 -37.835 70.185 -37.75 69.25 C-37 66 -37 66 -35.11328125 64.125 C-32.78356236 61.78236215 -31.74447991 59.76942552 -30.4375 56.75 C-30.01726562 55.78835938 -29.59703125 54.82671875 -29.1640625 53.8359375 C-28.15020128 51.36592661 -27.21088552 48.88866453 -26.3125 46.375 C-25 43 -25 43 -23 42 C-22.30356015 40.01017187 -21.645124 38.00705243 -21 36 C-19.71939642 32.97580539 -18.36694288 29.98604027 -17 27 C-16.34 27 -15.68 27 -15 27 C-14.896875 26.113125 -14.79375 25.22625 -14.6875 24.3125 C-13.96660352 20.83908968 -12.93613526 18.94005725 -11 16 C-10.26339511 14.73346353 -9.53445597 13.46244352 -8.8125 12.1875 C-8.214375 11.135625 -7.61625 10.08375 -7 9 C-6.34 9 -5.68 9 -5 9 C-3.92474806 6.34771188 -2.90543849 3.71631546 -2 1 C-1.34 0.67 -0.68 0.34 0 0 Z " fill="#623977" transform="translate(386,634)"/>
<path d="M0 0 C1 4 1 4 0.22265625 5.89453125 C-0.54662444 7.16630505 -1.31744208 8.43715053 -2.08984375 9.70703125 C-3.61333884 13.5451927 -3.71980369 17.0783918 -2.25805664 20.98071289 C-1.25569188 23.06920337 -0.18342021 25.0977631 0.9375 27.125 C5.44230895 35.44994917 5.44230895 35.44994917 6 40 C6.66 40 7.32 40 8 40 C21 65.70967742 21 65.70967742 21 69 C21.66 69 22.32 69 23 69 C23.67667998 70.24460783 24.34094719 71.49596896 25 72.75 C25.37125 73.44609375 25.7425 74.1421875 26.125 74.859375 C27 77 27 77 27 81 C27.99 80.67 28.98 80.34 30 80 C29.01 81.98 29.01 81.98 28 84 C6.22 84 -15.56 84 -38 84 C-38 83.34 -38 82.68 -38 82 C-17.21 82 3.58 82 25 82 C25 81.01 25 80.02 25 79 C24.34 79 23.68 79 23 79 C22.4121875 77.80697266 22.4121875 77.80697266 21.8125 76.58984375 C17.33546454 67.55154496 12.74229355 58.57362321 8.11837769 49.60980225 C7.41401213 48.24406719 6.71017562 46.87805915 6.00686646 45.51177979 C2.70409674 39.09641057 -0.59829516 32.68532972 -4.0703125 26.359375 C-4.50093994 25.57103271 -4.93156738 24.78269043 -5.37524414 23.97045898 C-6.13961807 22.58113117 -6.91410079 21.19729287 -7.70092773 19.82055664 C-10.0619906 15.52734472 -10.0619906 15.52734472 -9.71484375 12.57421875 C-9.47894531 12.05472656 -9.24304688 11.53523437 -9 11 C-8.67 11.66 -8.34 12.32 -8 13 C-7.34 13 -6.68 13 -6 13 C-4.02 8.71 -2.04 4.42 0 0 Z " fill="#40A774" transform="translate(562,550)"/>
<path d="M0 0 C55.44 0 110.88 0 168 0 C168.99 1.98 168.99 1.98 170 4 C169.01 3.505 169.01 3.505 168 3 C165.82112362 2.89356142 163.63893322 2.85329754 161.45748901 2.84178162 C160.77791047 2.83684364 160.09833193 2.83190566 159.3981601 2.82681805 C157.11033193 2.81140261 154.8225319 2.80307153 152.53466797 2.79467773 C150.89892324 2.78510238 149.26318101 2.77509251 147.62744141 2.76467896 C143.17730445 2.73758662 138.72715684 2.71660054 134.27698278 2.69667697 C129.62979524 2.67484406 124.98264069 2.64744222 120.33547974 2.62062073 C111.5311549 2.57065732 102.72681179 2.52573205 93.92245114 2.48259836 C83.90080825 2.43325713 73.87919847 2.37832747 63.85758758 2.32291877 C43.23842254 2.20904273 22.61922592 2.10221596 2 2 C2.50144531 3.10472656 3.00289062 4.20945312 3.51953125 5.34765625 C5 9 5 9 4.6875 11.4375 C4.460625 11.953125 4.23375 12.46875 4 13 C3.32065893 11.77779263 2.65708477 10.54681549 2 9.3125 C1.62875 8.62800781 1.2575 7.94351562 0.875 7.23828125 C0 5 0 5 0 0 Z " fill="#846594" transform="translate(153,431)"/>
<path d="M0 0 C0.13284269 10.55888532 -0.26473942 21.02550017 -0.875 31.5625 C-0.94169388 32.75028549 -0.94169388 32.75028549 -1.00973511 33.96206665 C-1.56153068 43.76029307 -2.23114923 53.52280789 -3.28961182 63.28137207 C-3.94978841 69.6722954 -4.20694907 76.03336859 -4.3984375 82.453125 C-4.87064274 95.88986399 -6.14770805 109.1972942 -7.5625 122.5625 C-7.79953957 124.8573485 -8.03587029 127.15227033 -8.27148438 129.44726562 C-8.83954273 134.96571025 -9.41613229 140.48320676 -10 146 C-10.33 146 -10.66 146 -11 146 C-11.027526 143.56241991 -11.04708568 141.12516459 -11.0625 138.6875 C-11.07087891 138.01654297 -11.07925781 137.34558594 -11.08789062 136.65429688 C-11.10642104 132.70731906 -10.91947616 128.84341269 -10.52294922 124.91552734 C-9.98788182 119.20454548 -9.72770635 113.50874722 -9.53515625 107.77734375 C-9.45668134 105.67121272 -9.37789596 103.56509323 -9.29882812 101.45898438 C-9.17921441 98.19208072 -9.06207785 94.92514543 -8.95043945 91.65795898 C-8.84010376 88.46827619 -8.71957595 85.27910203 -8.59765625 82.08984375 C-8.55222435 80.64411232 -8.55222435 80.64411232 -8.50587463 79.16917419 C-8.29079613 73.74429831 -7.61463448 68.68817238 -6.46217346 63.3863678 C-5.73882551 59.65146218 -5.55788644 55.9351942 -5.40234375 52.140625 C-5.36315323 51.34775085 -5.32396271 50.55487671 -5.28358459 49.73797607 C-5.16115485 47.24226091 -5.04863238 44.74624151 -4.9375 42.25 C-4.82137067 39.7395785 -4.70301863 37.22930515 -4.58070374 34.71917725 C-4.50553111 33.16780759 -4.43405073 31.61625295 -4.3669281 30.06451416 C-4.17311244 25.96942656 -3.72356658 22.03253376 -3 18 C-2.87012832 16.64013079 -2.76184535 15.27787612 -2.68359375 13.9140625 C-2.64169922 13.21152344 -2.59980469 12.50898438 -2.55664062 11.78515625 C-2.51732422 11.07230469 -2.47800781 10.35945312 -2.4375 9.625 C-2.39431641 8.88894531 -2.35113281 8.15289062 -2.30664062 7.39453125 C-2.20156201 5.59651932 -2.10037907 3.79828042 -2 2 C-4.31 3.32 -6.62 4.64 -9 6 C-9 5.34 -9 4.68 -9 4 C-3.70588235 0 -3.70588235 0 0 0 Z " fill="#85C0A0" transform="translate(758,237)"/>
<path d="M0 0 C-0.75 4.75 -0.75 4.75 -3 7 C-3.45811675 8.97235333 -3.45811675 8.97235333 -3.625 11.125 C-3.74875 12.40375 -3.8725 13.6825 -4 15 C-4.99 15.33 -5.98 15.66 -7 16 C-7.99 12.37 -8.98 8.74 -10 5 C-10.99 5.04125 -11.98 5.0825 -13 5.125 C-17.23835866 5.1423348 -20.93193985 4.14191162 -25 3 C-24.72265625 1.109375 -24.72265625 1.109375 -24 -1 C-15.0395675 -5.40161596 -8.52058942 -5.07609583 0 0 Z " fill="#EFEEF1" transform="translate(808,233)"/>
<path d="M0 0 C1.9375 0.75 1.9375 0.75 4 2 C4.75 4.125 4.75 4.125 5 6 C4.01 5.67 3.02 5.34 2 5 C2 9.95 2 14.9 2 20 C1.01 20 0.02 20 -1 20 C-1 18.35 -1 16.7 -1 15 C-1.66 15 -2.32 15 -3 15 C-3.99 17.475 -3.99 17.475 -5 20 C-6.32 19.34 -7.64 18.68 -9 18 C-9 17.01 -9 16.02 -9 15 C-9.66 15 -10.32 15 -11 15 C-11.33 16.65 -11.66 18.3 -12 20 C-12.66 20 -13.32 20 -14 20 C-14 14.39 -14 8.78 -14 3 C-11.525 3.495 -11.525 3.495 -9 4 C-8.34 7.63 -7.68 11.26 -7 15 C-6.34 14.67 -5.68 14.34 -5 14 C-4.77182784 11.97904659 -4.54609636 9.95768287 -4.34765625 7.93359375 C-3.90390605 5.46554486 -2.93703659 4.5334873 -1 3 C-0.67 2.01 -0.34 1.02 0 0 Z " fill="#A68CB2" transform="translate(808,234)"/>
<path d="M0 0 C0.75410156 0.00451172 1.50820313 0.00902344 2.28515625 0.01367188 C4.14847127 0.02546501 6.01174555 0.04340058 7.875 0.0625 C7.31880331 4.7514493 5.99317327 8.26174267 3.8125 12.4375 C3.26464844 13.49710938 2.71679688 14.55671875 2.15234375 15.6484375 C1.73082031 16.44507813 1.30929687 17.24171875 0.875 18.0625 C-2.125 17.0625 -2.125 17.0625 -3.29296875 15.28515625 C-3.62941406 14.57230469 -3.96585938 13.85945312 -4.3125 13.125 C-4.82876953 12.05958984 -4.82876953 12.05958984 -5.35546875 10.97265625 C-6.125 9.0625 -6.125 9.0625 -6.125 7.0625 C-7.115 6.7325 -8.105 6.4025 -9.125 6.0625 C-9.455 4.4125 -9.785 2.7625 -10.125 1.0625 C-6.93675432 -0.53162284 -3.49603338 -0.03924735 0 0 Z " fill="#EEF6F2" transform="translate(555.125,545.9375)"/>
<path d="M0 0 C4.61601994 3.48052841 7.97003408 6.04908579 9 12 C9.68602615 19.31761221 9.27808955 27.65848259 4.6875 33.73828125 C3.3125 35.125 3.3125 35.125 1 37 C0.01 36.67 -0.98 36.34 -2 36 C-1.34 36 -0.68 36 0 36 C1.41377341 33.36095629 2.37240135 30.92879371 3 28 C2.34 28 1.68 28 1 28 C1.15984375 27.15566406 1.3196875 26.31132812 1.484375 25.44140625 C2.01484852 21.9008974 2.20326988 18.51624801 2.25 14.9375 C2.27578125 13.75027344 2.3015625 12.56304687 2.328125 11.33984375 C1.97265603 7.72167743 0.90534546 6.02028663 -1 3 C-0.67 2.01 -0.34 1.02 0 0 Z " fill="#643875" transform="translate(811,232)"/>
<path d="M0 0 C1 4 1 4 -3 13 C-9.93 13 -16.86 13 -24 13 C-23.67 13.99 -23.34 14.98 -23 16 C-23.66 16 -24.32 16 -25 16 C-25 14.68 -25 13.36 -25 12 C-23.68 11.67 -22.36 11.34 -21 11 C-20.67 9.02 -20.34 7.04 -20 5 C-14.06 4.67 -8.12 4.34 -2 4 C-1.34 2.68 -0.68 1.36 0 0 Z " fill="#E1DCE4" transform="translate(481,432)"/>
<path d="M0 0 C3.875 2.625 3.875 2.625 5 6 C27.77 6 50.54 6 74 6 C73.67 6.99 73.34 7.98 73 9 C49.9 9 26.8 9 3 9 C2.67 7.35 2.34 5.7 2 4 C1.34 4 0.68 4 0 4 C0 2.68 0 1.36 0 0 Z " fill="#A58EAF" transform="translate(316,754)"/>
<path d="M0 0 C1 4 1 4 0.22265625 5.89453125 C-0.54662444 7.16630505 -1.31744208 8.43715053 -2.08984375 9.70703125 C-3.61211292 13.54210423 -3.70563505 17.07439718 -2.27416992 20.98071289 C-1.29055585 23.07105014 -0.23253659 25.09770984 0.875 27.125 C1.60324413 28.50171594 2.32984859 29.87930067 3.0546875 31.2578125 C3.56467285 32.22509277 3.56467285 32.22509277 4.08496094 33.21191406 C5.81698209 36.59647193 7 39.17745536 7 43 C4 42 4 42 2.16796875 38.7890625 C1.49800075 37.4057509 0.83842135 36.01737549 0.1875 34.625 C-0.5135867 33.16308325 -1.21672483 31.70214859 -1.921875 30.2421875 C-2.26927734 29.5212793 -2.61667969 28.80037109 -2.97460938 28.05761719 C-4.82322858 24.34805464 -6.94057805 20.79030581 -9.06640625 17.234375 C-10.14451422 14.65413333 -9.98413447 13.56935707 -9 11 C-8.67 11.66 -8.34 12.32 -8 13 C-7.34 13 -6.68 13 -6 13 C-4.02 8.71 -2.04 4.42 0 0 Z " fill="#35A36A" transform="translate(562,550)"/>
<path d="M0 0 C-1 2 -1 2 -4.3125 3.8125 C-9.02337781 6.40927486 -11.95540503 10.03822142 -14 15 C-14.28693388 17.24133258 -14.48966591 19.4944319 -14.625 21.75 C-14.69976563 22.92046875 -14.77453125 24.0909375 -14.8515625 25.296875 C-14.90054688 26.18890625 -14.94953125 27.0809375 -15 28 C-15.99 28 -16.98 28 -18 28 C-18.81446172 10.62481666 -18.81446172 10.62481666 -12.421875 3.15625 C-8.30680978 -0.92174256 -5.79954068 -1.65701162 0 0 Z " fill="#67397A" transform="translate(789,228)"/>
<path d="M0 0 C0.33 0.66 0.66 1.32 1 2 C1.886875 1.979375 2.77375 1.95875 3.6875 1.9375 C7 2 7 2 12 3 C12 8.61 12 14.22 12 20 C11.67 19.34 11.34 18.68 11 18 C10.484375 18.495 9.96875 18.99 9.4375 19.5 C6.19319983 21.49649241 3.73782666 21.21564385 0 21 C0 20.67 0 20.34 0 20 C2.31 19.34 4.62 18.68 7 18 C7.33 16.35 7.66 14.7 8 13 C5.36 11.68 2.72 10.36 0 9 C0 8.01 0 7.02 0 6 C2.31 6.33 4.62 6.66 7 7 C6.34 6.01 5.68 5.02 5 4 C1.41642759 3.74984127 1.41642759 3.74984127 -2 4 C-1.34 2.68 -0.68 1.36 0 0 Z " fill="#D7D0DD" transform="translate(782,234)"/>
<path d="M0 0 C0.66 0 1.32 0 2 0 C2.309375 1.175625 2.309375 1.175625 2.625 2.375 C4.47193984 5.90097605 6.32780447 5.8280227 10 7 C10.9375 9.0625 10.9375 9.0625 11 11 C10 12 10 12 6.9375 12.0625 C5.968125 12.041875 4.99875 12.02125 4 12 C4 12.66 4 13.32 4 14 C3.34 14 2.68 14 2 14 C2 15.98 2 17.96 2 20 C-0.42392636 17.68146174 -1.90469818 16.25222157 -2.16796875 12.79296875 C-2.23248937 4.18591758 -2.23248937 4.18591758 0 0 Z " fill="#BEACC7" transform="translate(777,240)"/>
<path d="M0 0 C2.76390737 2.40339772 3.04065919 3.16263678 4 7 C10.27 7.33 16.54 7.66 23 8 C21.87591241 13.62043796 21.87591241 13.62043796 18.1875 16.125 C17.50042969 16.60195313 16.81335938 17.07890625 16.10546875 17.5703125 C15.41066406 18.04210937 14.71585937 18.51390625 14 19 C12.66196717 19.99370314 11.3272243 20.99190604 10 22 C10.61512818 27.00890086 11.2717552 32.00632136 12 37 C9.08914567 32.63371851 7.20592655 28.51189714 7.27734375 23.125 C8.90030287 18.3526229 14.0571224 15.80037448 18 13 C18.99 12.01 19.98 11.02 21 10 C14.4 10 7.8 10 1 10 C-0.60725635 6.78548731 -0.05748185 3.56387464 0 0 Z " fill="#64AD86" transform="translate(490,436)"/>
<path d="M0 0 C0.66 0.33 1.32 0.66 2 1 C0.68 2.65 -0.64 4.3 -2 6 C1.465 5.505 1.465 5.505 5 5 C5.66 6.32 6.32 7.64 7 9 C4.69 8.67 2.38 8.34 0 8 C0.33 8.99 0.66 9.98 1 11 C2.155 11.45375 3.31 11.9075 4.5 12.375 C8 14 8 14 9.125 16.5 C9 19 9 19 8 20.8125 C5.02507445 22.57886204 2.38199514 22.19143369 -1 22 C-1 21.34 -1 20.68 -1 20 C0.98 19.67 2.96 19.34 5 19 C4.96877057 17.03243548 4.96877057 17.03243548 4 15 C1.00384054 13.6954344 1.00384054 13.6954344 -2 13 C-2.33 11.35 -2.66 9.7 -3 8 C-3.66 8 -4.32 8 -5 8 C-5.33 8.99 -5.66 9.98 -6 11 C-5.62671065 5.64951939 -4.0042343 3.49087093 0 0 Z " fill="#916CA0" transform="translate(782,232)"/>
<path d="M0 0 C1.32 0 2.64 0 4 0 C4.33 2.31 4.66 4.62 5 7 C4.67 7 4.34 7 4 7 C3.90099865 11.76881876 3.82847072 16.5370373 3.78027344 21.30664062 C3.76017856 22.92849143 3.73289746 24.55026997 3.69824219 26.171875 C3.6496273 28.5053898 3.62701111 30.83794557 3.609375 33.171875 C3.58872986 33.89493835 3.56808472 34.61800171 3.54681396 35.36297607 C3.54523732 38.9136831 3.67489349 40.620317 6.02441406 43.36425781 C6.67635742 43.90405273 7.32830078 44.44384766 8 45 C8 45.66 8 46.32 8 47 C9.65 47.66 11.3 48.32 13 49 C10.50907189 50.24546405 9.58919267 49.7767578 7 49 C6.67 47.68 6.34 46.36 6 45 C5.236875 45.33 4.47375 45.66 3.6875 46 C1 47 1 47 -2 47 C-2 46.34 -2 45.68 -2 45 C-1.34 45 -0.68 45 0 45 C0 44.34 0 43.68 0 43 C0.99 42.505 0.99 42.505 2 42 C1.67 30.78 1.34 19.56 1 8 C0.34 8 -0.32 8 -1 8 C-0.67 5.36 -0.34 2.72 0 0 Z " fill="#227C4D" transform="translate(483,424)"/>
<path d="M0 0 C4.34586621 3.64113115 5.82772797 6.62303696 7.2265625 12.109375 C7.48179687 12.73328125 7.73703125 13.3571875 8 14 C8.99 14.33 9.98 14.66 11 15 C10.27991594 19.60853797 8.68704061 23.67237409 7 28 C6.34 28 5.68 28 5 28 C4.34 29.98 3.68 31.96 3 34 C2.34 34 1.68 34 1 34 C1.47656412 32.20763933 1.95633498 30.41613103 2.4375 28.625 C2.70433594 27.62726562 2.97117187 26.62953125 3.24609375 25.6015625 C4 23 4 23 5 21 C5.61916988 14.0652973 3.78060136 9.28706252 1 3 C0.67 2.01 0.34 1.02 0 0 Z " fill="#643A78" transform="translate(397,577)"/>
<path d="M0 0 C2 3 2 3 3.25 5.375 C6.70203951 10.55305927 10.51935188 13.48506612 16.66015625 14.72265625 C24.02929834 15.59612718 30.995217 15.54719382 38 13 C38 13.66 38 14.32 38 15 C34.62902617 16.49821059 32.79557881 17 29 17 C29 17.66 29 18.32 29 19 C14.16276472 19.81423852 14.16276472 19.81423852 8 15 C4.15208163 11.54212404 0.83290267 8.27511826 0.0625 3 C0.041875 2.01 0.02125 1.02 0 0 Z " fill="#C1B2C9" transform="translate(771,256)"/>
<path d="M0 0 C0.13760767 10.07084305 -0.21741313 20.05684836 -0.79956055 30.10742188 C-0.93891052 32.52446562 -1.07040945 34.94185298 -1.20117188 37.359375 C-1.28860153 38.91669261 -1.37647575 40.47398535 -1.46484375 42.03125 C-1.50343002 42.74381958 -1.5420163 43.45638916 -1.58177185 44.19055176 C-1.81830324 48.18604579 -2.26628911 52.06537455 -3 56 C-3.33 56 -3.66 56 -4 56 C-3.42393518 37.99565913 -2.79119173 19.99643176 -2 2 C-4.31 3.32 -6.62 4.64 -9 6 C-9 5.34 -9 4.68 -9 4 C-3.70588235 0 -3.70588235 0 0 0 Z " fill="#BAD9C8" transform="translate(758,237)"/>
<path d="M0 0 C1 3 1 3 -0.375 5.9375 C-3.351622 9.99745041 -7.20530455 11.75167692 -12 13 C-18.13731886 13.62307806 -23.33212449 13.58570963 -29 11 C-24.63665064 9.65743096 -20.39486757 9.97210265 -15.875 10.0625 C-13.35134104 10.00763785 -11.36397902 9.85913126 -9 9 C-7.94978897 7.15028304 -7.94978897 7.15028304 -7 5 C-4.64366767 2.33962479 -3.40781414 1.13593805 0 0 Z " fill="#613471" transform="translate(814,259)"/>
<path d="M0 0 C1.32 0.33 2.64 0.66 4 1 C4.82418386 17.09447929 4.82418386 17.09447929 0 24 C-0.99 24.66 -1.98 25.32 -3 26 C-3.99 25.67 -4.98 25.34 -6 25 C-5.38125 24.79375 -4.7625 24.5875 -4.125 24.375 C-1.15346355 22.45224112 -0.86975341 20.33405473 0 17 C-0.99 17 -1.98 17 -3 17 C-3 16.34 -3 15.68 -3 15 C-2.01 15 -1.02 15 0 15 C0 10.05 0 5.1 0 0 Z " fill="#D0C5D5" transform="translate(810,239)"/>
<path d="M0 0 C0.33 0.99 0.66 1.98 1 3 C0.67 3.66 0.34 4.32 0 5 C0.66 5 1.32 5 2 5 C0.35433477 10.68502535 -2.29032784 15.76681636 -5 21 C-5.66 21 -6.32 21 -7 21 C-7.33 21.99 -7.66 22.98 -8 24 C-8.66 24 -9.32 24 -10 24 C-9.69078116 22.54096742 -9.37751201 21.08279278 -9.0625 19.625 C-8.88847656 18.81289063 -8.71445312 18.00078125 -8.53515625 17.1640625 C-8 15 -8 15 -7 13 C-6.34 13 -5.68 13 -5 13 C-3.25150329 8.6960081 -1.6229639 4.35249409 0 0 Z " fill="#643B79" transform="translate(398,606)"/>
<path d="M0 0 C0.33 0 0.66 0 1 0 C1 4.95 1 9.9 1 15 C1.66 15 2.32 15 3 15 C3.66 10.71 4.32 6.42 5 2 C5.33 2 5.66 2 6 2 C6.42628695 9.4205507 6.36266955 17.54646443 1.6875 23.73828125 C0.3125 25.125 0.3125 25.125 -2 27 C-2.99 26.67 -3.98 26.34 -5 26 C-4.34 26 -3.68 26 -3 26 C-1.58622659 23.36095629 -0.62759865 20.92879371 0 18 C-0.66 18 -1.32 18 -2 18 C-1.34 12.06 -0.68 6.12 0 0 Z " fill="#856394" transform="translate(814,242)"/>
<path d="M0 0 C0.66 0.33 1.32 0.66 2 1 C1.34 2.65 0.68 4.3 0 6 C-0.66 6 -1.32 6 -2 6 C-2.18755859 7.08087891 -2.18755859 7.08087891 -2.37890625 8.18359375 C-2.99408166 10.97316275 -3.85608405 13.42221276 -4.9375 16.0625 C-5.27652344 16.89910156 -5.61554687 17.73570312 -5.96484375 18.59765625 C-6.90383963 20.77683537 -7.91384848 22.89101521 -9 25 C-9.66 25 -10.32 25 -11 25 C-11.268125 25.845625 -11.53625 26.69125 -11.8125 27.5625 C-13.0478595 31.13854067 -14.476988 34.53860908 -16 38 C-16.66 38 -17.32 38 -18 38 C-18.12375 38.804375 -18.2475 39.60875 -18.375 40.4375 C-18.684375 41.7059375 -18.684375 41.7059375 -19 43 C-19.99 43.495 -19.99 43.495 -21 44 C-19.73206591 38.29429658 -17.33821961 33.71019322 -14.4375 28.6484375 C-13.07984456 26.14710492 -11.99934341 23.66171273 -11 21 C-10.34 21 -9.68 21 -9 21 C-8.896875 20.113125 -8.79375 19.22625 -8.6875 18.3125 C-7.9585768 14.80041548 -6.91437263 13.00829984 -5 10 C-3.29035036 6.68787278 -1.64346455 3.34539226 0 0 Z " fill="#6EB790" transform="translate(704,400)"/>
<path d="M0 0 C0.33 0 0.66 0 1 0 C1.34841982 4.64559767 0.45112494 7.82035391 -1.265625 12.03125 C-2.2388634 14.64035721 -2.65557873 17.24462982 -3 20 C1.455 16.535 1.455 16.535 6 13 C6.66 13.33 7.32 13.66 8 14 C6.81370736 15.51749109 5.59995247 17.01354082 4.375 18.5 C3.70210938 19.3353125 3.02921875 20.170625 2.3359375 21.03125 C0 23 0 23 -3.2734375 23.28125 C-4.17320312 23.1884375 -5.07296875 23.095625 -6 23 C-5.13188291 15.01332277 -2.59242925 7.57787013 0 0 Z " fill="#AF9EB6" transform="translate(473,458)"/>
<path d="M0 0 C0.66 0 1.32 0 2 0 C0.58689366 4.58777423 -1.26175214 8.83055985 -3.40625 13.11328125 C-3.73161743 13.76830124 -4.05698486 14.42332123 -4.39221191 15.09819031 C-5.07601328 16.47150232 -5.76187694 17.84378925 -6.44970703 19.21508789 C-7.50382181 21.32013208 -8.5471062 23.43031696 -9.58984375 25.54101562 C-10.2571645 26.87792781 -10.92511108 28.21452784 -11.59375 29.55078125 C-11.90526001 30.18301102 -12.21677002 30.81524078 -12.53771973 31.46662903 C-14.77077891 35.88538946 -14.77077891 35.88538946 -17 37 C-16.37629252 32.39386217 -14.49373693 28.60059262 -12.40234375 24.51171875 C-12.04862198 23.80852005 -11.69490021 23.10532135 -11.33045959 22.3808136 C-10.20509922 20.14681651 -9.07144457 17.91715008 -7.9375 15.6875 C-7.1706718 14.16889848 -6.40438962 12.65002112 -5.63867188 11.13085938 C-3.76542351 7.41734829 -1.88472764 3.70769727 0 0 Z " fill="#72B991" transform="translate(595,486)"/>
<path d="M0 0 C0.625 1.875 0.625 1.875 1 4 C0.34 4.66 -0.32 5.32 -1 6 C-1.44206021 7.29766061 -1.83084736 8.61381606 -2.1875 9.9375 C-4.06278648 15.88235147 -7.30200242 21.00993097 -11 26 C-11.66 26.33 -12.32 26.66 -13 27 C-12.6171533 24.24350379 -12.30983 22.39859672 -10.58203125 20.17578125 C-8.22288493 16.93122693 -7.29534056 13.34444164 -6.0625 9.55859375 C-4.99896062 6.99749709 -4.03162437 5.81805738 -2 4 C-0.82425289 1.90010348 -0.82425289 1.90010348 0 0 Z " fill="#2C8863" transform="translate(504,533)"/>
<path d="M0 0 C4.441725 1.39597071 7.01540848 3.43507124 10 7 C10.8125 9.8125 10.8125 9.8125 11 12 C8.8515625 10.046875 8.8515625 10.046875 6.703125 8.09375 C4.77639485 6.63975508 4.77639485 6.63975508 1 7 C-1.42995092 6.17026066 -3.66274046 5.07873517 -6 4 C-6 3.67 -6 3.34 -6 3 C-4.02 3 -2.04 3 0 3 C0 2.01 0 1.02 0 0 Z " fill="#816091" transform="translate(806,226)"/>
<path d="M0 0 C0.66 0 1.32 0 2 0 C1.34 1.98 0.68 3.96 0 6 C-0.66 6 -1.32 6 -2 6 C-2.061875 6.78375 -2.12375 7.5675 -2.1875 8.375 C-3.3032335 13.35288793 -5.60306227 17.52453694 -8 22 C-8.66 22 -9.32 22 -10 22 C-10.144375 22.94875 -10.28875 23.8975 -10.4375 24.875 C-11 28 -11 28 -12 30 C-12.66 30 -13.32 30 -14 30 C-14.33 31.32 -14.66 32.64 -15 34 C-15.33 33.34 -15.66 32.68 -16 32 C-14.9301484 29.55549578 -13.79971672 27.23372253 -12.5625 24.875 C-11.82397996 23.43501828 -11.0857063 21.99491017 -10.34765625 20.5546875 C-9.76975342 19.43658691 -9.76975342 19.43658691 -9.18017578 18.29589844 C-7.25327955 14.54733985 -5.37874006 10.77285513 -3.5 7 C-2.82316603 5.64570868 -2.14610583 4.29153038 -1.46875 2.9375 C-0.9840625 1.968125 -0.499375 0.99875 0 0 Z " fill="#A894B5" transform="translate(450,505)"/>
<path d="M0 0 C1.5 1.375 1.5 1.375 3 3 C3 3.66 3 4.32 3 5 C3.66 5 4.32 5 5 5 C5.66 7.64 6.32 10.28 7 13 C7.66 13 8.32 13 9 13 C9 14.32 9 15.64 9 17 C9.66 17 10.32 17 11 17 C11 18.32 11 19.64 11 21 C11.66 21 12.32 21 13 21 C13.66 23.64 14.32 26.28 15 29 C15.66 29 16.32 29 17 29 C17 30.65 17 32.3 17 34 C14 30.25 14 30.25 14 28 C13.34 28 12.68 28 12 28 C10.68373308 24.38026598 10 21.90432869 10 18 C9.34 18 8.68 18 8 18 C6 15 6 15 6 12 C5.34 12 4.68 12 4 12 C3.51801537 10.75108386 3.03954323 9.50081192 2.5625 8.25 C2.29566406 7.55390625 2.02882812 6.8578125 1.75390625 6.140625 C1.03853307 4.10940997 0.48634348 2.0964709 0 0 Z " fill="#876A97" transform="translate(190,505)"/>
<path d="M0 0 C4.23797984 1.41265995 5.13900943 4.42259731 7.0625 8.1875 C7.5894043 9.1784668 7.5894043 9.1784668 8.12695312 10.18945312 C10.13861251 14.04164775 11.74594653 17.82198765 13 22 C13.66 22 14.32 22 15 22 C15 23.32 15 24.64 15 26 C15.66 26 16.32 26 17 26 C16.67 27.32 16.34 28.64 16 30 C11.69454675 24.40136205 8.70108974 18.58889077 5.75 12.1875 C5.30398438 11.23423828 4.85796875 10.28097656 4.3984375 9.29882812 C3.57977528 7.54862753 2.76400404 5.79706948 1.95214844 4.04370117 C1.3200545 2.68696825 0.66936791 1.33873581 0 0 Z " fill="#6EBE97" transform="translate(488,566)"/>
<path d="M0 0 C0.66 0 1.32 0 2 0 C0.50500701 4.91431029 -1.51510709 9.36434688 -3.8125 13.9375 C-4.14314453 14.61490234 -4.47378906 15.29230469 -4.81445312 15.99023438 C-7.15447783 20.67477519 -9.86566417 24.80447542 -13 29 C-13 24.9055936 -11.15280806 21.99018027 -9.3125 18.4375 C-8.76819336 17.36918945 -8.76819336 17.36918945 -8.21289062 16.27929688 C-7.4847981 14.85026981 -6.75452081 13.42235361 -6.02197266 11.99560547 C-4.66199697 9.33998166 -3.32969691 6.67088976 -2 4 C-1.33333333 2.66666667 -0.66666667 1.33333333 0 0 Z " fill="#7DBD9A" transform="translate(647,387)"/>
<path d="M0 0 C1.9375 0.75 1.9375 0.75 4 2 C4.75 4.125 4.75 4.125 5 6 C4.01 5.67 3.02 5.34 2 5 C2 9.95 2 14.9 2 20 C1.01 20 0.02 20 -1 20 C-1 18.35 -1 16.7 -1 15 C-1.66 14.67 -2.32 14.34 -3 14 C-2.67 13.34 -2.34 12.68 -2 12 C-1.34 12 -0.68 12 0 12 C0.33 9.69 0.66 7.38 1 5 C-2.16666667 6.83333333 -2.16666667 6.83333333 -4 10 C-3.43454163 6.04179141 -2.19097652 3.3340947 0 0 Z " fill="#B29DBB" transform="translate(808,234)"/>
<path d="M0 0 C1.125 3.75 1.125 3.75 0 6 C-0.22950319 8.204364 -0.41075933 10.41392173 -0.5625 12.625 C-0.64628906 13.81351563 -0.73007812 15.00203125 -0.81640625 16.2265625 C-0.87699219 17.14179688 -0.93757812 18.05703125 -1 19 C-1.99 19 -2.98 19 -4 19 C-4 14.05 -4 9.1 -4 4 C-3.01 3.67 -2.02 3.34 -1 3 C-0.67 2.01 -0.34 1.02 0 0 Z " fill="#592B6D" transform="translate(775,237)"/>
<path d="M0 0 C1.92578125 0.8125 1.92578125 0.8125 4.67578125 2.3125 C3.68578125 2.8075 3.68578125 2.8075 2.67578125 3.3125 C1.68578125 2.9825 0.69578125 2.6525 -0.32421875 2.3125 C-2.5499621 2.08798542 -4.78003394 1.90467122 -7.01171875 1.75 C-8.19121094 1.66621094 -9.37070312 1.58242187 -10.5859375 1.49609375 C-11.94138672 1.40521484 -11.94138672 1.40521484 -13.32421875 1.3125 C-13.65421875 2.3025 -13.98421875 3.2925 -14.32421875 4.3125 C-16.171875 5.04296875 -16.171875 5.04296875 -18.38671875 5.5 C-19.12019531 5.65855469 -19.85367188 5.81710938 -20.609375 5.98046875 C-21.45822266 6.14482422 -21.45822266 6.14482422 -22.32421875 6.3125 C-22.32421875 5.6525 -22.32421875 4.9925 -22.32421875 4.3125 C-16.20185507 -1.62979416 -7.96676907 -2.3565569 0 0 Z " fill="#B49EBE" transform="translate(801.32421875,222.6875)"/>
<path d="M0 0 C0 0.99 0 1.98 0 3 C-7.92 3.495 -7.92 3.495 -16 4 C-16 4.66 -16 5.32 -16 6 C-16.66 6 -17.32 6 -18 6 C-18 5.34 -18 4.68 -18 4 C-18.99 3.67 -19.98 3.34 -21 3 C-21 2.34 -21 1.68 -21 1 C-10.605 0.505 -10.605 0.505 0 0 Z " fill="#6E4B7F" transform="translate(478,444)"/>
<path d="M0 0 C2.67927341 4.01891012 2.15601248 6.24161923 2 11 C-0.31 11.66 -2.62 12.32 -5 13 C-4.48749429 8.59245089 -3.4576226 5.68643389 -1 2 C-0.67 1.34 -0.34 0.68 0 0 Z " fill="#E5EDE6" transform="translate(693,425)"/>
<path d="M0 0 C6.75 0.875 6.75 0.875 9 2 C8.60249084 10.34769229 6.32766508 16.31258735 0.6875 22.5625 C0.130625 23.036875 -0.42625 23.51125 -1 24 C0.43804702 18.67922604 3.01940823 14.22480347 5.7578125 9.48828125 C7.22332584 7.01616439 7.22332584 7.01616439 7 4 C4.69 3.01 2.38 2.02 0 1 C0 0.67 0 0.34 0 0 Z " fill="#76BB96" transform="translate(660,342)"/>
<path d="M0 0 C0.33 0 0.66 0 1 0 C1.05821935 3.89577024 1.0936703 7.79142802 1.125 11.6875 C1.14175781 12.79029297 1.15851562 13.89308594 1.17578125 15.02929688 C1.18222656 16.09599609 1.18867187 17.16269531 1.1953125 18.26171875 C1.20578613 19.24100342 1.21625977 20.22028809 1.22705078 21.22924805 C0.98597685 24.17112772 0.23055542 26.33237726 -1 29 C-1.33 29 -1.66 29 -2 29 C-2.32001346 19.23958934 -1.11306313 9.67967405 0 0 Z " fill="#F2F4F1" transform="translate(752,333)"/>
<path d="M0 0 C0.66 0 1.32 0 2 0 C2.226875 0.763125 2.45375 1.52625 2.6875 2.3125 C4.27302175 5.55904453 5.90214579 6.28802794 9 8 C9 8.66 9 9.32 9 10 C6.36 9.67 3.72 9.34 1 9 C0.67 9.66 0.34 10.32 0 11 C-1 10 -1 10 -1.125 6.625 C-1 3 -1 3 0 0 Z " fill="#EEECEF" transform="translate(777,240)"/>
<path d="M0 0 C0.66 0.33 1.32 0.66 2 1 C0.68 2.65 -0.64 4.3 -2 6 C1.465 5.505 1.465 5.505 5 5 C5.66 6.32 6.32 7.64 7 9 C2.545 8.01 2.545 8.01 -2 7 C-2 8.65 -2 10.3 -2 12 C-2.33 10.68 -2.66 9.36 -3 8 C-3.66 8 -4.32 8 -5 8 C-5.33 8.99 -5.66 9.98 -6 11 C-5.62671065 5.64951939 -4.0042343 3.49087093 0 0 Z " fill="#A88EB2" transform="translate(782,232)"/>
<path d="M0 0 C3.35270541 3.08801814 5.87721504 5.50886018 7 10 C6.625 12.8125 6.625 12.8125 6 15 C3.22165316 13.61082658 3.00357014 12.04236447 1.875 9.1875 C1.52179687 8.31480469 1.16859375 7.44210938 0.8046875 6.54296875 C0 4 0 4 0 0 Z " fill="#5A2B6B" transform="translate(811,232)"/>
<path d="M0 0 C0 0.66 0 1.32 0 2 C-7.07555499 5.0017506 -13.37048445 5.34855655 -21 5 C-21 4.34 -21 3.68 -21 3 C-21.66 2.67 -22.32 2.34 -23 2 C-21.35451172 2.03480469 -21.35451172 2.03480469 -19.67578125 2.0703125 C-18.221361 2.08907921 -16.76693336 2.10727844 -15.3125 2.125 C-14.59126953 2.14175781 -13.87003906 2.15851563 -13.12695312 2.17578125 C-8.37348791 2.21919189 -4.41235368 0 0 0 Z " fill="#90709D" transform="translate(809,269)"/>
<path d="M0 0 C0.05384521 2.29141286 0.09272087 4.58318188 0.125 6.875 C0.14820313 8.15117187 0.17140625 9.42734375 0.1953125 10.7421875 C0 14 0 14 -2 16 C-2 11.38 -2 6.76 -2 2 C-4.31 3.32 -6.62 4.64 -9 6 C-9 5.34 -9 4.68 -9 4 C-3.70588235 0 -3.70588235 0 0 0 Z " fill="#86C4A4" transform="translate(758,237)"/>
<path d="M0 0 C0.33 0.66 0.66 1.32 1 2 C0.07421875 4.6796875 0.07421875 4.6796875 -1.3125 7.875 C-1.76238281 8.92429687 -2.21226562 9.97359375 -2.67578125 11.0546875 C-3.73164397 13.40312553 -4.82235213 15.71105062 -6 18 C-6.66 18 -7.32 18 -8 18 C-8.33 18.66 -8.66 19.32 -9 20 C-9 18.68 -9 17.36 -9 16 C-8.34 16 -7.68 16 -7 16 C-6.82984375 15.34773437 -6.6596875 14.69546875 -6.484375 14.0234375 C-4.98961902 8.63277496 -3.39793098 4.45246128 0 0 Z " fill="#AA9AB5" transform="translate(470,600)"/>
<path d="M0 0 C0.33 0.66 0.66 1.32 1 2 C0.22265625 3.9453125 0.22265625 3.9453125 -0.9375 6.125 C-1.31777344 6.84945313 -1.69804688 7.57390625 -2.08984375 8.3203125 C-2.39019531 8.87460937 -2.69054687 9.42890625 -3 10 C-3.66 10 -4.32 10 -5 10 C-5.103125 10.639375 -5.20625 11.27875 -5.3125 11.9375 C-6.23903073 16.06477326 -7.61660629 20.00642949 -9 24 C-9.66 24 -10.32 24 -11 24 C-8.71505799 15.26892077 -5.61753722 7.15256193 0 0 Z " fill="#7BB796" transform="translate(658,495)"/>
<path d="M0 0 C0 0.99 0 1.98 0 3 C-3.17545903 4.05848634 -5.54008796 4.16670878 -8.875 4.1875 C-9.90367187 4.20167969 -10.93234375 4.21585937 -11.9921875 4.23046875 C-15.05463488 3.99581369 -17.23248861 3.29184572 -20 2 C-16.56463366 0.93785775 -13.45633119 0.92960528 -9.875 1 C-6.27103027 1.0704933 -3.35923554 0 0 0 Z " fill="#552867" transform="translate(805,268)"/>
<path d="M0 0 C0.84205836 2.37922307 1.14174203 3.59929592 0.28735352 6.01464844 C-0.09493408 6.7059082 -0.47722168 7.39716797 -0.87109375 8.109375 C-1.28037109 8.86347656 -1.68964844 9.61757813 -2.11132812 10.39453125 C-2.54896484 11.17183594 -2.98660156 11.94914062 -3.4375 12.75 C-3.87126953 13.54277344 -4.30503906 14.33554687 -4.75195312 15.15234375 C-5.82392454 17.10780809 -6.90678122 19.05635908 -8 21 C-8.84205836 18.62077693 -9.14174203 17.40070408 -8.28735352 14.98535156 C-7.90506592 14.2940918 -7.52277832 13.60283203 -7.12890625 12.890625 C-6.71962891 12.13652344 -6.31035156 11.38242187 -5.88867188 10.60546875 C-5.2322168 9.43951172 -5.2322168 9.43951172 -4.5625 8.25 C-3.9118457 7.06083984 -3.9118457 7.06083984 -3.24804688 5.84765625 C-2.17607546 3.89219191 -1.09321878 1.94364092 0 0 Z " fill="#9DCDB3" transform="translate(717,375)"/>
<path d="M0 0 C0.84205836 2.37922307 1.14174203 3.59929592 0.28735352 6.01464844 C-0.09493408 6.7059082 -0.47722168 7.39716797 -0.87109375 8.109375 C-1.28037109 8.86347656 -1.68964844 9.61757813 -2.11132812 10.39453125 C-2.54896484 11.17183594 -2.98660156 11.94914062 -3.4375 12.75 C-3.87126953 13.54277344 -4.30503906 14.33554687 -4.75195312 15.15234375 C-5.82392454 17.10780809 -6.90678122 19.05635908 -8 21 C-8.84205836 18.62077693 -9.14174203 17.40070408 -8.28735352 14.98535156 C-7.90506592 14.2940918 -7.52277832 13.60283203 -7.12890625 12.890625 C-6.71962891 12.13652344 -6.31035156 11.38242187 -5.88867188 10.60546875 C-5.2322168 9.43951172 -5.2322168 9.43951172 -4.5625 8.25 C-3.9118457 7.06083984 -3.9118457 7.06083984 -3.24804688 5.84765625 C-2.17607546 3.89219191 -1.09321878 1.94364092 0 0 Z " fill="#78BB96" transform="translate(658,366)"/>
<path d="M0 0 C0.33 0.99 0.66 1.98 1 3 C1.99 2.67 2.98 2.34 4 2 C3.34 3.98 2.68 5.96 2 8 C0.33333333 8 -1.33333333 8 -3 8 C-3.103125 8.763125 -3.20625 9.52625 -3.3125 10.3125 C-4.04364039 13.17059424 -4.76951913 14.15742885 -7 16 C-6.28028381 12.24654344 -4.66887798 9.13908031 -2.9375 5.75 C-2.11572266 4.13351562 -2.11572266 4.13351562 -1.27734375 2.484375 C-0.64505859 1.25460937 -0.64505859 1.25460937 0 0 Z M0 3 C1 6 1 6 1 6 Z " fill="#5E3073" transform="translate(387,627)"/>
<path d="M0 0 C0.33 0 0.66 0 1 0 C1 4.95 1 9.9 1 15 C0.67 14.34 0.34 13.68 0 13 C-0.515625 13.495 -1.03125 13.99 -1.5625 14.5 C-4.80680017 16.49649241 -7.26217334 16.21564385 -11 16 C-11 15.67 -11 15.34 -11 15 C-9.88625 14.773125 -8.7725 14.54625 -7.625 14.3125 C-3.83961627 13.39376342 -3.83961627 13.39376342 -2.5625 10.375 C-2.376875 9.59125 -2.19125 8.8075 -2 8 C-1.34 8 -0.68 8 0 8 C0 5.36 0 2.72 0 0 Z " fill="#CCC1D3" transform="translate(793,239)"/>
<path d="M0 0 C0.33 0.66 0.66 1.32 1 2 C0.37915039 3.69580078 0.37915039 3.69580078 -0.65234375 5.6953125 C-1.01650391 6.41074219 -1.38066406 7.12617187 -1.75585938 7.86328125 C-2.14580078 8.60964844 -2.53574219 9.35601563 -2.9375 10.125 C-3.32357422 10.87910156 -3.70964844 11.63320313 -4.10742188 12.41015625 C-5.06452132 14.27709097 -6.03136106 16.13902628 -7 18 C-7.61328125 16.21484375 -7.61328125 16.21484375 -8 14 C-7.06275503 12.22246643 -6.11515167 10.44664323 -5.05078125 8.7421875 C-3.8651899 6.88252402 -3.8651899 6.88252402 -2.875 4.1875 C-2 2 -2 2 0 0 Z " fill="#3C766B" transform="translate(517,507)"/>
<path d="M0 0 C0.66 0 1.32 0 2 0 C2.66 1.32 3.32 2.64 4 4 C4.99 4 5.98 4 7 4 C7 4.66 7 5.32 7 6 C6.113125 5.979375 5.22625 5.95875 4.3125 5.9375 C1.08751586 5.88058737 1.08751586 5.88058737 -1.625 6.625 C-4.46026949 7.07267413 -5.61238289 6.50331448 -8 5 C-6.68 4.34 -5.36 3.68 -4 3 C-4 3.66 -4 4.32 -4 5 C-3.01 4.67 -2.02 4.34 -1 4 C-0.26676204 1.98491642 -0.26676204 1.98491642 0 0 Z " fill="#E5E1E7" transform="translate(797,249)"/>
<path d="M0 0 C0.640625 1.765625 0.640625 1.765625 1 4 C0.109375 5.859375 0.109375 5.859375 -1.25 7.75 C-3.91335211 11.69680592 -5.47251588 15.49794155 -7 20 C-7.66 20 -8.32 20 -9 20 C-7.71200424 14.89355216 -5.95593157 10.69861783 -3.375 6.0625 C-2.42753906 4.34740234 -2.42753906 4.34740234 -1.4609375 2.59765625 C-0.97882813 1.74042969 -0.49671875 0.88320313 0 0 Z " fill="#B3A3BB" transform="translate(412,714)"/>
<path d="M0 0 C2.31 0 4.62 0 7 0 C7.061875 0.61875 7.12375 1.2375 7.1875 1.875 C7.828919 4.27761141 7.828919 4.27761141 10.5625 5.25 C11.366875 5.4975 12.17125 5.745 13 6 C10.50907189 7.24546405 9.58919267 6.7767578 7 6 C6.67 4.68 6.34 3.36 6 2 C4.8553125 2.495 4.8553125 2.495 3.6875 3 C1 4 1 4 -2 4 C-2 3.34 -2 2.68 -2 2 C-1.34 2 -0.68 2 0 2 C0 1.34 0 0.68 0 0 Z " fill="#8FB1A7" transform="translate(483,467)"/>
<path d="M0 0 C2.76390737 2.40339772 3.04065919 3.16263678 4 7 C10.27 7.33 16.54 7.66 23 8 C23 8.33 23 8.66 23 9 C16.07 9 9.14 9 2 9 C0 4 0 4 0 0 Z " fill="#AACDBB" transform="translate(490,436)"/>
<path d="M0 0 C0.66 0.33 1.32 0.66 2 1 C1.06027344 1.79664063 1.06027344 1.79664063 0.1015625 2.609375 C-0.71570313 3.31578125 -1.53296875 4.0221875 -2.375 4.75 C-3.59316406 5.79414063 -3.59316406 5.79414063 -4.8359375 6.859375 C-6.88231309 8.88358767 -7.75632812 10.46823939 -9 13 C-11.625 13.75 -11.625 13.75 -14 14 C-14 13.34 -14 12.68 -14 12 C-12.28048026 10.46148234 -10.49812503 8.99268241 -8.6875 7.5625 C-4.15615016 3.98901832 -4.15615016 3.98901832 0 0 Z " fill="#78B693" transform="translate(682,299)"/>
<path d="M0 0 C2.97 0.495 2.97 0.495 6 1 C4.80371747 3.39256506 3.87434735 3.79843378 1.5625 5.0625 C0.94503906 5.40410156 0.32757812 5.74570313 -0.30859375 6.09765625 C-1.52991482 6.74921553 -2.76188703 7.38094352 -4 8 C-4.33 7.01 -4.66 6.02 -5 5 C-3.625 3.5 -3.625 3.5 -2 2 C-1.34 2 -0.68 2 0 2 C0 1.34 0 0.68 0 0 Z " fill="#603472" transform="translate(783,227)"/>
<path d="M0 0 C0.5859375 1.87109375 0.5859375 1.87109375 1 4 C-0.375 6.0625 -0.375 6.0625 -2 8 C-2.33 8.99 -2.66 9.98 -3 11 C-3.66 11 -4.32 11 -5 11 C-5.144375 11.94875 -5.28875 12.8975 -5.4375 13.875 C-6 17 -6 17 -7 19 C-7.66 19 -8.32 19 -9 19 C-7.05709049 11.94417074 -3.95742848 6.1346545 0 0 Z " fill="#9A83A4" transform="translate(438,662)"/>
<path d="M0 0 C1 2 1 2 0.44140625 3.9453125 C0.15136719 4.66460938 -0.13867188 5.38390625 -0.4375 6.125 C-0.72496094 6.84945312 -1.01242187 7.57390625 -1.30859375 8.3203125 C-1.53675781 8.87460937 -1.76492188 9.42890625 -2 10 C-2.66 10 -3.32 10 -4 10 C-4.4021875 11.36125 -4.4021875 11.36125 -4.8125 12.75 C-5.89576294 15.71471963 -6.98359457 17.6169754 -9 20 C-8.40440894 15.13127946 -6.27522585 11.40671159 -3.9375 7.1875 C-3.56044922 6.49462891 -3.18339844 5.80175781 -2.79492188 5.08789062 C-1.86916148 3.38871015 -0.93537688 1.69390575 0 0 Z " fill="#9881A3" transform="translate(448,642)"/>
<path d="M0 0 C0.89603047 2.41928227 1.07240541 3.73934052 0.375 6.25 C-1.49883532 9.99767065 -3.71779909 13.48959174 -6 17 C-6 13.40901412 -4.97498765 11.23063694 -3.5625 7.9375 C-3.11003906 6.87402344 -2.65757812 5.81054688 -2.19140625 4.71484375 C-1.49495987 3.12785937 -0.77505574 1.55011148 0 0 Z " fill="#B3A4BB" transform="translate(422,693)"/>
<path d="M0 0 C3.72007056 4.11864955 8 10.20736961 8 16 C7.34 16 6.68 16 6 16 C4.9901527 14.08850332 3.99245505 12.17058431 3 10.25 C2.443125 9.18265625 1.88625 8.1153125 1.3125 7.015625 C0 4 0 4 0 0 Z " fill="#967FA3" transform="translate(379,541)"/>
<path d="M0 0 C3.05300885 3.53678327 5.03745005 6.87053561 6.8125 11.1875 C7.47185547 12.75564453 7.47185547 12.75564453 8.14453125 14.35546875 C9 17 9 17 8 19 C5.93183566 15.73447736 4.09461536 12.36503436 2.3125 8.9375 C1.87550781 8.10089844 1.43851562 7.26429688 0.98828125 6.40234375 C0 4 0 4 0 0 Z " fill="#937AA3" transform="translate(332,451)"/>
<path d="M0 0 C1.37865891 4.13597673 -0.02135681 5.89201347 -1.80859375 9.703125 C-3.33771001 12.6510606 -5.06419466 15.3036997 -7 18 C-7.33 17.34 -7.66 16.68 -8 16 C-7.37915039 14.30419922 -7.37915039 14.30419922 -6.34765625 12.3046875 C-5.98349609 11.58925781 -5.61933594 10.87382813 -5.24414062 10.13671875 C-4.85419922 9.39035156 -4.46425781 8.64398437 -4.0625 7.875 C-3.67642578 7.12089844 -3.29035156 6.36679687 -2.89257812 5.58984375 C-1.93547868 3.72290903 -0.96863894 1.86097372 0 0 Z " fill="#62AE86" transform="translate(613,585)"/>
<path d="M0 0 C0.640625 1.78515625 0.640625 1.78515625 1 4 C0.109375 5.74609375 0.109375 5.74609375 -1.25 7.4375 C-3.38416447 10.19586299 -5.25625046 12.97138238 -7 16 C-7 9.87327022 -3.428494 4.84718117 0 0 Z " fill="#3B786A" transform="translate(504,533)"/>
<path d="M0 0 C3.72006826 4.118647 6.30824355 8.71715318 8 14 C7.67 14.66 7.34 15.32 7 16 C5.82268014 14.0898586 4.65848895 12.17162056 3.5 10.25 C2.8503125 9.18265625 2.200625 8.1153125 1.53125 7.015625 C0 4 0 4 0 0 Z " fill="#9F89AC" transform="translate(362,508)"/>
<path d="M0 0 C0.66 0 1.32 0 2 0 C0.35433477 5.68502535 -2.29032784 10.76681636 -5 16 C-6 14 -6 14 -5.3125 11.375 C-3.78325592 7.44265808 -1.95325089 3.73582938 0 0 Z " fill="#71B791" transform="translate(624,431)"/>
<path d="M0 0 C0.33 0.66 0.66 1.32 1 2 C0.67 2.66 0.34 3.32 0 4 C-0.66 4 -1.32 4 -2 4 C-2.20625 4.61875 -2.4125 5.2375 -2.625 5.875 C-4.54775888 8.84653645 -6.66594527 9.13024659 -10 10 C-10 9.34 -10 8.68 -10 8 C-5.52941176 4 -5.52941176 4 -3 4 C-3 3.34 -3 2.68 -3 2 C-2.01 1.34 -1.02 0.68 0 0 Z " fill="#5EAA81" transform="translate(727,261)"/>
<path d="M0 0 C1.65 0.33 3.3 0.66 5 1 C5 1.99 5 2.98 5 4 C-0.28 3.67 -5.56 3.34 -11 3 C-11 2.67 -11 2.34 -11 2 C-7.37 2 -3.74 2 0 2 C0 1.34 0 0.68 0 0 Z " fill="#5F3771" transform="translate(801,225)"/>
<path d="M0 0 C0.99 0.33 1.98 0.66 3 1 C2.03644647 10.41002278 2.03644647 10.41002278 1 15 C0.67 15 0.34 15 0 15 C0 10.05 0 5.1 0 0 Z " fill="#DFDAE1" transform="translate(810,239)"/>
<path d="M0 0 C0.99 0 1.98 0 3 0 C3.33 2.64 3.66 5.28 4 8 C3.01 7.67 2.02 7.34 1 7 C0.67 8.32 0.34 9.64 0 11 C0 7.37 0 3.74 0 0 Z " fill="#825B92" transform="translate(795,239)"/>
<path d="M0 0 C0.66 0.33 1.32 0.66 2 1 C-0.64 3.97 -3.28 6.94 -6 10 C-6.66 9.34 -7.32 8.68 -8 8 C-7.34 8 -6.68 8 -6 8 C-5.9071875 7.13375 -5.9071875 7.13375 -5.8125 6.25 C-4.67972699 3.11309013 -2.65802405 1.90832496 0 0 Z " fill="#C2B9C9" transform="translate(479,471)"/>
<path d="M0 0 C0.33 1.32 0.66 2.64 1 4 C0.34 4 -0.32 4 -1 4 C-1.433125 5.0828125 -1.433125 5.0828125 -1.875 6.1875 C-2.91666667 8.79166667 -3.95833333 11.39583333 -5 14 C-5.88336837 11.5332355 -6.1312406 10.36140628 -5.22265625 7.859375 C-4.83980469 7.16328125 -4.45695313 6.4671875 -4.0625 5.75 C-3.68222656 5.04359375 -3.30195312 4.3371875 -2.91015625 3.609375 C-2.60980469 3.07828125 -2.30945313 2.5471875 -2 2 C-1.34 2 -0.68 2 0 2 C0 1.34 0 0.68 0 0 Z " fill="#74B893" transform="translate(608,463)"/>
<path d="M0 0 C0.66 0 1.32 0 2 0 C0.58192622 4.47238653 -1.11304374 8.71146306 -3 13 C-3.66 13 -4.32 13 -5 13 C-4.54554036 11.58208592 -4.08625056 10.16571954 -3.625 8.75 C-3.24214844 7.56664062 -3.24214844 7.56664062 -2.8515625 6.359375 C-2.04826333 4.13372042 -1.10288338 2.09068328 0 0 Z " fill="#6AB48B" transform="translate(614,450)"/>
<path d="M0 0 C0.66 0 1.32 0 2 0 C0.58707905 4.8274799 -1.42974154 8.7162359 -4 13 C-5.0169313 10.34501768 -5.13022151 9.30844625 -4.00390625 6.640625 C-3.52824219 5.85171875 -3.05257812 5.0628125 -2.5625 4.25 C-2.08941406 3.45078125 -1.61632812 2.6515625 -1.12890625 1.828125 C-0.75636719 1.22484375 -0.38382813 0.6215625 0 0 Z " fill="#73B992" transform="translate(631,418)"/>
<path d="M0 0 C0.66 0 1.32 0 2 0 C1.49287967 3.71888239 0.88391785 6.73454239 -1 10 C-1.66 10 -2.32 10 -3 10 C-2.49287967 6.28111761 -1.88391785 3.26545761 0 0 Z " fill="#663E7A" transform="translate(364,673)"/>
<path d="M0 0 C0.66 0 1.32 0 2 0 C2 4.62 2 9.24 2 14 C1.67 14 1.34 14 1 14 C1 11.36 1 8.72 1 6 C0.34 6 -0.32 6 -1 6 C-1.042721 4.33388095 -1.04063832 2.66617115 -1 1 C-0.67 0.67 -0.34 0.34 0 0 Z " fill="#7D578C" transform="translate(807,239)"/>
<path d="M0 0 C3.30979968 2.81332973 5.1048141 6.141943 7 10 C6.75 12.4375 6.75 12.4375 6 14 C2 7.375 2 7.375 2 4 C1.34 4 0.68 4 0 4 C0 2.68 0 1.36 0 0 Z " fill="#86C4A8" transform="translate(514,614)"/>
<path d="M0 0 C2 2 2 2 2 6 C-0.66666667 5.33333333 -3.33333333 4.66666667 -6 4 C-6 3.01 -6 2.02 -6 1 C-4.02 1.66 -2.04 2.32 0 3 C0 2.01 0 1.02 0 0 Z " fill="#82BB9D" transform="translate(502,473)"/>
<path d="M0 0 C1.32 0 2.64 0 4 0 C4.33 2.31 4.66 4.62 5 7 C3.68 5.68 2.36 4.36 1 3 C0.67 4.65 0.34 6.3 0 8 C-0.98120464 4.94736336 -0.98120464 3.05263664 0 0 Z " fill="#8CB5A2" transform="translate(483,424)"/>
<path d="M0 0 C0.33 0.66 0.66 1.32 1 2 C1.66 2 2.32 2 3 2 C3 3.32 3 4.64 3 6 C3.66 6 4.32 6 5 6 C5.33 8.31 5.66 10.62 6 13 C3.49387834 11.74693917 3.11615658 10.66521628 1.875 8.1875 C1.52179688 7.50042969 1.16859375 6.81335938 0.8046875 6.10546875 C0 4 0 4 0 0 Z " fill="#8D739C" transform="translate(225,574)"/>
<path d="M0 0 C4.4008703 3.82180842 5.80805531 6.47371099 7 12 C3.66488612 9.0098979 1.78478881 6.10501426 0 2 C0 1.34 0 0.68 0 0 Z " fill="#A593B3" transform="translate(397,577)"/>
<path d="M0 0 C0.93065133 2.60582371 1.14917407 3.64198224 0.0625 6.25 C-0.4634375 7.11625 -0.4634375 7.11625 -1 8 C-1.66 8 -2.32 8 -3 8 C-3.33 9.32 -3.66 10.64 -4 12 C-4.33 11.34 -4.66 10.68 -5 10 C-4.2578125 7.87109375 -4.2578125 7.87109375 -3.125 5.4375 C-2.75632812 4.63183594 -2.38765625 3.82617188 -2.0078125 2.99609375 C-1 1 -1 1 0 0 Z " fill="#A1CEB4" transform="translate(636,540)"/>
<path d="M0 0 C0.66 0 1.32 0 2 0 C0.68775452 3.93673644 -0.91910327 6.22719294 -4 9 C-4.99 8.67 -5.98 8.34 -7 8 C-6.34 8 -5.68 8 -5 8 C-4.690625 7.38125 -4.38125 6.7625 -4.0625 6.125 C-3.375 4.75 -2.6875 3.375 -2 2 C-1.34 2 -0.68 2 0 2 C0 1.34 0 0.68 0 0 Z " fill="#B4A2BE" transform="translate(816,260)"/>
<path d="M0 0 C0.66 0 1.32 0 2 0 C2.66 1.98 3.32 3.96 4 6 C2.68 5.67 1.36 5.34 0 5 C0.33 6.98 0.66 8.96 1 11 C0.34 10.67 -0.32 10.34 -1 10 C-1.125 3.375 -1.125 3.375 0 0 Z " fill="#D9D3DC" transform="translate(777,240)"/>
<path d="M0 0 C0.99 0.495 0.99 0.495 2 1 C2 1.99 2 2.98 2 4 C2.66 4 3.32 4 4 4 C4.33 5.98 4.66 7.96 5 10 C1.95623822 7.97082548 1.25189126 7.27417715 0 4 C0 2.68 0 1.36 0 0 Z " fill="#957CA2" transform="translate(387,557)"/>
<path d="M0 0 C0.66 0.33 1.32 0.66 2 1 C1.175 1.763125 0.35 2.52625 -0.5 3.3125 C-3.34055197 5.75434142 -3.34055197 5.75434142 -3 9 C-4.32 8.67 -5.64 8.34 -7 8 C-5.61918777 3.8575633 -3.40174442 2.67796901 0 0 Z " fill="#2D935F" transform="translate(651,327)"/>
<path d="M0 0 C1 2 1 2 0.875 4.375 C-0.26735106 7.80205319 -2.08114387 8.97925345 -5 11 C-4.34 9.02 -3.68 7.04 -3 5 C-2.34 5 -1.68 5 -1 5 C-0.67 3.35 -0.34 1.7 0 0 Z " fill="#744D87" transform="translate(415,577)"/>
<path d="M0 0 C1 2 1 2 0.29296875 4.12890625 C-0.07183594 4.93199219 -0.43664062 5.73507812 -0.8125 6.5625 C-1.16957031 7.36816406 -1.52664063 8.17382812 -1.89453125 9.00390625 C-3 11 -3 11 -5 12 C-4.54738642 10.56068883 -4.08767021 9.12361001 -3.625 7.6875 C-3.24214844 6.48673828 -3.24214844 6.48673828 -2.8515625 5.26171875 C-2 3 -2 3 0 0 Z " fill="#94C7AB" transform="translate(630,552)"/>
<path d="M0 0 C1.74271938 2.297221 3.39911152 4.59866729 5 7 C4.625 9.1875 4.625 9.1875 4 11 C0 4.5 0 4.5 0 0 Z " fill="#83C4A3" transform="translate(534,524)"/>
<path d="M0 0 C0.66 0.99 1.32 1.98 2 3 C0 5 0 5 -3.625 5.125 C-4.73875 5.08375 -5.8525 5.0425 -7 5 C-7 4.34 -7 3.68 -7 3 C-5.5459375 2.814375 -5.5459375 2.814375 -4.0625 2.625 C-2.5465625 2.315625 -2.5465625 2.315625 -1 2 C-0.67 1.34 -0.34 0.68 0 0 Z " fill="#9978A8" transform="translate(788,249)"/>
<path d="M0 0 C1.65 0 3.3 0 5 0 C5.66 1.32 6.32 2.64 7 4 C4.36 3.34 1.72 2.68 -1 2 C-0.67 1.34 -0.34 0.68 0 0 Z " fill="#A285AE" transform="translate(782,237)"/>
<path d="M0 0 C3.44216672 2.6598561 3.99504674 5.90288286 5 10 C2 9 2 9 0.8125 6.6875 C0 4 0 4 0 0 Z " fill="#C4B8CB" transform="translate(168,463)"/>
<path d="M0 0 C-1.44806239 4.34418718 -4.38861564 5.17253236 -8.3125 7.1875 C-8.869375 7.455625 -9.42625 7.72375 -10 8 C-3.56521739 0 -3.56521739 0 0 0 Z " fill="#7DBB98" transform="translate(694,291)"/>
<path d="M0 0 C3.44216672 2.6598561 3.99504674 5.90288286 5 10 C2.9754262 8.06745228 1.57894208 6.36841312 0 4 C0 2.68 0 1.36 0 0 Z " fill="#947DA3" transform="translate(370,524)"/>
<path d="M0 0 C0.33 0.66 0.66 1.32 1 2 C0.22265625 3.9453125 0.22265625 3.9453125 -0.9375 6.125 C-1.31777344 6.84945313 -1.69804688 7.57390625 -2.08984375 8.3203125 C-2.39019531 8.87460937 -2.69054687 9.42890625 -3 10 C-3.62109375 8.203125 -3.62109375 8.203125 -4 6 C-2.0625 2.75 -2.0625 2.75 0 0 Z " fill="#8EC0A5" transform="translate(658,495)"/>
<path d="M0 0 C2.64 0.33 5.28 0.66 8 1 C7.67 2.32 7.34 3.64 7 5 C4.69 4.01 2.38 3.02 0 2 C0 1.34 0 0.68 0 0 Z " fill="#F2F1F2" transform="translate(784,241)"/>
<path d="M0 0 C1.32 0.33 2.64 0.66 4 1 C3.67 2.65 3.34 4.3 3 6 C2.01 6.33 1.02 6.66 0 7 C0 4.69 0 2.38 0 0 Z " fill="#7A578C" transform="translate(404,591)"/>
</svg>
